<?xml version="1.0" encoding="UTF-8"?>
<svg version="1.1" xmlns="http://www.w3.org/2000/svg" width="488" height="511">
<path d="M0 0 C0.97964508 -0.00525911 0.97964508 -0.00525911 1.97908098 -0.01062447 C4.17080961 -0.01993948 6.3622726 -0.01501498 8.5540123 -0.01015663 C10.13996368 -0.01389285 11.72591323 -0.01849426 13.31185985 -0.02388728 C17.67281457 -0.03613633 22.0336927 -0.03585457 26.39466071 -0.03349853 C31.09691412 -0.03309084 35.79914281 -0.04412496 40.50138474 -0.05361366 C49.7153527 -0.07023537 58.92929508 -0.07572375 68.14327678 -0.07683842 C75.6325966 -0.07778839 83.12190798 -0.08189616 90.61122513 -0.08823967 C111.84104614 -0.10585572 133.07084693 -0.11507804 154.3006753 -0.11357872 C155.44547707 -0.11349881 156.59027884 -0.1134189 157.76977158 -0.11333656 C159.48906915 -0.11321392 159.48906915 -0.11321392 161.24310002 -0.1130888 C179.81830068 -0.11227593 198.39342024 -0.13141302 216.96859744 -0.1596133 C236.03776424 -0.18833525 255.10689148 -0.20215395 274.17608047 -0.20042574 C284.88343463 -0.19976158 295.59070379 -0.20526552 306.29803848 -0.22678185 C315.41494213 -0.24498463 324.53172225 -0.24934843 333.64863619 -0.235763 C338.29988442 -0.22922864 342.95089561 -0.22913302 347.60212135 -0.2464695 C351.86221159 -0.2621847 356.12187654 -0.25935253 360.38195631 -0.24190123 C361.92098964 -0.2388279 363.4600546 -0.24247634 364.99905065 -0.25362138 C374.07607113 -0.31498802 382.38109866 -0.21402401 389.48315048 6.11664391 C389.90854111 6.74055016 390.33393173 7.36445641 390.77221298 8.00726891 C391.21307236 8.62086266 391.65393173 9.23445641 392.10815048 9.86664391 C396.55824158 18.11954013 396.81421624 25.02130607 396.73778915 34.29242516 C396.73694174 35.70245406 396.73742025 37.11248429 396.73911667 38.52251244 C396.7399736 42.32988607 396.72239716 46.13697326 396.7013948 49.94428062 C396.68257736 53.93075654 396.68087358 57.9172398 396.67731857 61.90375328 C396.66801294 69.44360928 396.64341934 76.983334 396.6132701 84.52313232 C396.57967983 93.11080216 396.56322848 101.69847843 396.5481838 110.28619766 C396.51686834 127.94331084 396.46187494 145.60024418 396.39721298 163.25726891 C380.55721298 163.25726891 364.71721298 163.25726891 348.39721298 163.25726891 C348.39721298 124.97726891 348.39721298 86.69726891 348.39721298 47.25726891 C241.14721298 47.25726891 133.89721298 47.25726891 23.39721298 47.25726891 C23.39721298 154.17726891 23.39721298 261.09726891 23.39721298 371.25726891 C40.55721298 371.25726891 57.71721298 371.25726891 75.39721298 371.25726891 C86.63291031 371.38463713 97.86524875 371.51768042 109.09930038 371.72083092 C112.67641337 371.78447758 116.25361352 371.84286634 119.83080673 371.90180016 C126.68638367 372.01508319 133.54175178 372.13623933 140.39721298 372.25726891 C140.39721298 387.76726891 140.39721298 403.27726891 140.39721298 419.25726891 C121.64699234 419.34765655 102.89694882 419.42130163 84.14656544 419.46451759 C75.43991468 419.48511924 66.73340917 419.51319384 58.02685165 419.55902672 C50.43582939 419.59896808 42.84491236 419.62471914 35.25378793 419.63362288 C31.23645684 419.63882533 27.21942669 419.65100249 23.20219231 419.68018913 C19.41581399 419.70747391 15.62985871 419.7156878 11.84339142 419.70969963 C10.45873651 419.71079407 9.07406647 419.71867021 7.68949699 419.73409081 C-1.85817345 419.83515203 -8.40395953 418.6076244 -16.41528702 413.44476891 C-22.14096373 407.7190922 -23.72389257 401.70683066 -23.73980141 393.80876446 C-23.74245323 393.16019833 -23.74510506 392.5116322 -23.74783725 391.84341255 C-23.75552199 389.66114441 -23.7560891 387.47893261 -23.75668716 385.29665184 C-23.76070232 383.71981421 -23.76514063 382.14297762 -23.76996672 380.56614226 C-23.78193194 376.22575315 -23.78758054 371.88537515 -23.79214787 367.54497278 C-23.79810406 362.86656488 -23.80971377 358.18817028 -23.82043839 353.50977135 C-23.84496049 342.20837361 -23.85958848 330.90697148 -23.87249845 319.60555533 C-23.87621027 316.41404737 -23.88018351 313.22253985 -23.88425112 310.03103232 C-23.90948556 290.21537792 -23.93154026 270.39972283 -23.94397926 250.5840559 C-23.94690899 245.99425123 -23.94987065 241.40444657 -23.95288467 236.81464195 C-23.95363072 235.67385929 -23.95437678 234.53307664 -23.95514543 233.35772481 C-23.9678022 214.87297977 -24.00102993 196.38833086 -24.04268651 177.90363077 C-24.08509607 158.92942181 -24.1086731 139.95526208 -24.11389983 120.98100585 C-24.11731485 110.32614387 -24.12908103 99.67143217 -24.16200256 89.01661682 C-24.18999063 79.94359695 -24.20100779 70.87075816 -24.1898071 61.79769848 C-24.18461747 57.16867688 -24.18752708 52.54003456 -24.21227264 47.91106796 C-24.23474884 43.67122413 -24.23403818 39.43203239 -24.21506877 35.19217726 C-24.21226648 33.66050935 -24.21788016 32.12879738 -24.23288171 30.59720037 C-24.32063042 21.05286646 -23.70908991 13.51215047 -16.78875577 6.39045459 C-11.64035817 1.59409381 -7.06526009 0.00856056 0 0 Z " fill="#030303" transform="translate(34.602787017822266,22.74273109436035)"/>
<path d="M0 0 C15.84 0 31.68 0 48 0 C48 16.5 48 33 48 50 C51.3 50.99 54.6 51.98 58 53 C60.3433148 53.97638117 62.67836879 54.97312466 65 56 C66.99263591 56.68836513 68.99041337 57.36281399 71 58 C71.61875 57.34 72.2375 56.68 72.875 56 C75 54 75 54 77 54 C77.66 52.68 78.32 51.36 79 50 C79.66 50 80.32 50 81 50 C81.20625 49.46375 81.4125 48.9275 81.625 48.375 C83.53250426 45.08021991 86.04819384 42.40636372 89 40 C89.66 40 90.32 40 91 40 C91.66 38.68 92.32 37.36 93 36 C93.66 36 94.32 36 95 36 C95.66 34.68 96.32 33.36 97 32 C97.66 32 98.32 32 99 32 C99.433125 31.071875 99.433125 31.071875 99.875 30.125 C101 28 101 28 103 26 C105.6875 25.875 105.6875 25.875 109 27 C110.93077357 28.86569132 112.58317127 30.85300018 114.26953125 32.94140625 C115.81421778 34.77899045 117.3105118 36.20765792 119.1875 37.6875 C121.92338211 39.93700306 123.79784485 42.24730606 126 45 C127.46361926 46.20907678 128.92767511 47.41770591 130.40234375 48.61328125 C132.1998031 50.17342323 133.82689004 51.80988731 135.4375 53.5625 C136.20900391 54.39974609 136.20900391 54.39974609 136.99609375 55.25390625 C138 57 138 57 137.74868774 58.90686035 C136.87919188 61.33774863 135.88010923 62.45426171 134.02490234 64.23632812 C133.40110687 64.84375854 132.7773114 65.45118896 132.13461304 66.07702637 C131.45855011 66.72192017 130.78248718 67.36681396 130.0859375 68.03125 C128.67162727 69.41250681 127.25757243 70.79402515 125.84375 72.17578125 C123.60488488 74.34615996 121.36217106 76.51233296 119.11425781 78.67333984 C116.94828263 80.76111242 114.79773768 82.86383511 112.6484375 84.96875 C111.96832611 85.6136438 111.28821472 86.2585376 110.5874939 86.92297363 C109.97000275 87.53040405 109.3525116 88.13783447 108.71630859 88.76367188 C108.16639252 89.29343628 107.61647644 89.82320068 107.04989624 90.36901855 C105.76656565 91.9748085 105.76656565 91.9748085 106.28297424 94.08705139 C107.00112121 96.00299126 107.76395197 97.86033339 108.62890625 99.71484375 C108.94150391 100.40126953 109.25410156 101.08769531 109.57617188 101.79492188 C110.2329268 103.22157565 110.89438098 104.64607564 111.56054688 106.06835938 C112.02750977 107.09993164 112.02750977 107.09993164 112.50390625 108.15234375 C112.79080322 108.77101318 113.0777002 109.38968262 113.37329102 110.02709961 C114 112 114 112 114 117 C130.5 117 147 117 164 117 C164 132.51 164 148.02 164 164 C147.5 164 131 164 114 164 C114 165.65 114 167.3 114 169 C113.01171875 171.6484375 113.01171875 171.6484375 111.6875 174.375 C110.20819631 177.45799328 108.7533591 180.53633612 107.41333008 183.68212891 C106.94693115 184.77702637 106.48053223 185.87192383 106 187 C106.4281752 187.41707214 106.8563504 187.83414429 107.29750061 188.26385498 C111.74040127 192.59637508 116.16579043 196.94621042 120.58129883 201.30664062 C122.23276779 202.93292237 123.88869042 204.55469406 125.54907227 206.171875 C127.93122056 208.49356267 130.2970238 210.83085467 132.66015625 213.171875 C133.40902603 213.89493835 134.15789581 214.61800171 134.92945862 215.36297607 C135.61023972 216.04337952 136.29102081 216.72378296 136.99243164 217.42480469 C137.5986586 218.01992859 138.20488556 218.61505249 138.82948303 219.22821045 C140 221 140 221 139.77781677 223.11407471 C138.86470738 225.32803583 137.86456557 226.50834754 136 228 C135.34 228 134.68 228 134 228 C133.78230957 228.54366211 133.56461914 229.08732422 133.34033203 229.64746094 C131.54913222 232.79135918 129.11723419 235.12947667 126.5546875 237.640625 C126.02481232 238.16767029 125.49493713 238.69471558 124.94900513 239.23773193 C123.26232175 240.91325675 121.56880436 242.58167722 119.875 244.25 C118.72740612 245.38755851 117.58026539 246.52557436 116.43359375 247.6640625 C113.62761863 250.44803465 110.81549536 253.2256576 108 256 C105.00056095 254.65427113 102.91923821 253.16462899 100.60839844 250.83544922 C99.64785553 249.87467972 99.64785553 249.87467972 98.66790771 248.89450073 C97.98859192 248.20486237 97.30927612 247.515224 96.609375 246.8046875 C95.90476135 246.09724396 95.20014771 245.38980042 94.47418213 244.66091919 C92.2280461 242.40360138 89.98896991 240.13942367 87.75 237.875 C86.22702283 236.34199047 84.70359061 234.80943285 83.1796875 233.27734375 C79.44783185 229.52345427 75.72174649 225.76391086 72 222 C71.18668213 222.34063477 70.37336426 222.68126953 69.53540039 223.03222656 C68.46281982 223.48049805 67.39023926 223.92876953 66.28515625 224.390625 C65.22433838 224.83438477 64.16352051 225.27814453 63.07055664 225.73535156 C58.43186117 227.64585825 53.76026526 229.41324491 49 231 C48.67 247.17 48.34 263.34 48 280 C32.16 280 16.32 280 0 280 C-0.33 263.83 -0.66 247.66 -1 231 C-6.94 229.02 -6.94 229.02 -13 227 C-18.4375 224.125 -18.4375 224.125 -20.74609375 222.7578125 C-23.06005606 221.74731559 -23.06005606 221.74731559 -25.703125 222.734375 C-28.32830144 224.18090079 -28.98422365 225.22970086 -30 228 C-30.66 228 -31.32 228 -32 228 C-32.66 229.32 -33.32 230.64 -34 232 C-34.66 232 -35.32 232 -36 232 C-36.2475 232.61875 -36.495 233.2375 -36.75 233.875 C-38.23740369 236.40358627 -39.43678009 236.71839004 -42 238 C-43.26804566 240.0335948 -43.26804566 240.0335948 -44 242 C-44.66 242 -45.32 242 -46 242 C-46 242.66 -46 243.32 -46 244 C-46.66 244 -47.32 244 -48 244 C-48 244.66 -48 245.32 -48 246 C-48.66 246 -49.32 246 -50 246 C-50.20625 246.53625 -50.4125 247.0725 -50.625 247.625 C-52.57996944 251.0017654 -55.18223695 253.30474839 -58 256 C-60.87556264 254.69267989 -62.97103155 253.28988834 -65.22387695 251.08251953 C-65.82742508 250.4949588 -66.43097321 249.90739807 -67.05281067 249.30203247 C-68.01086861 248.35201859 -68.01086861 248.35201859 -68.98828125 247.3828125 C-69.65087448 246.72924774 -70.31346771 246.07568298 -70.99613953 245.40231323 C-72.39150009 244.02143652 -73.78408609 242.63775126 -75.17407227 241.25146484 C-77.31009554 239.127391 -79.46405887 237.02268091 -81.61914062 234.91796875 C-82.97249898 233.57406856 -84.32475167 232.2290538 -85.67578125 230.8828125 C-86.3246077 230.25351837 -86.97343414 229.62422424 -87.641922 228.9758606 C-88.22970932 228.38199554 -88.81749664 227.78813049 -89.4230957 227.17626953 C-90.20774956 226.39922165 -90.20774956 226.39922165 -91.008255 225.60647583 C-92 224 -92 224 -91.84855652 221.86398315 C-91.56853287 221.24886871 -91.28850922 220.63375427 -91 220 C-90.01 219.67 -89.02 219.34 -88 219 C-87.731875 218.443125 -87.46375 217.88625 -87.1875 217.3125 C-85.467157 213.96235837 -82.91424712 211.37574493 -80 209 C-79.34 209 -78.68 209 -78 209 C-77.34 207.68 -76.68 206.36 -76 205 C-75.34 205 -74.68 205 -74 205 C-73.7525 204.4225 -73.505 203.845 -73.25 203.25 C-71.81700012 200.67060021 -70.21575324 198.93878408 -68 197 C-67.34 197 -66.68 197 -66 197 C-66 196.34 -66 195.68 -66 195 C-65.34 195 -64.68 195 -64 195 C-64 194.34 -64 193.68 -64 193 C-63.34 193 -62.68 193 -62 193 C-62 192.34 -62 191.68 -62 191 C-61.34 191 -60.68 191 -60 191 C-58.70395996 188.81182061 -58.70395996 188.81182061 -58 186 C-58.99922919 183.13610274 -58.99922919 183.13610274 -60.75 180.3125 C-64.10793816 174.51456472 -64.54667115 171.26664423 -66 164 C-82.5 164 -99 164 -116 164 C-116 148.49 -116 132.98 -116 117 C-99.5 117 -83 117 -66 117 C-65.34 113.7 -64.68 110.4 -64 107 C-62.86114518 104.33580117 -61.74541518 101.89856942 -60.375 99.375 C-59.88773438 98.44107422 -59.88773438 98.44107422 -59.390625 97.48828125 C-58.60495824 95.98627126 -57.80415137 94.49219531 -57 93 C-57.42821045 92.57178955 -57.8564209 92.1435791 -58.29760742 91.70239258 C-61.6085612 88.3914388 -64.91951497 85.08048503 -68.23046875 81.76953125 C-68.88305664 81.11734619 -69.53564453 80.46516113 -70.20800781 79.79321289 C-71.66117087 78.33905994 -73.11047335 76.88104976 -74.55859375 75.421875 C-76.4728076 73.52297486 -78.40847537 71.66075019 -80.3671875 69.80859375 C-81.53661149 68.68505523 -82.70588028 67.56135513 -83.875 66.4375 C-84.48085937 65.87353516 -85.08671875 65.30957031 -85.7109375 64.72851562 C-87.4296875 63.05859375 -87.4296875 63.05859375 -90 60 C-89.57796064 55.74486853 -86.87291957 52.96975955 -84 50 C-82.33333333 48.66666667 -80.66666667 47.33333333 -79 46 C-77.80790775 44.55015807 -76.61696566 43.09922118 -75.4453125 41.6328125 C-73.19343862 39.08880363 -70.5788791 36.99734556 -67.984375 34.8125 C-65.49169422 32.53572071 -63.50184466 30.01008858 -61.51953125 27.28515625 C-60 26 -60 26 -57.62409973 25.73608398 C-54.48735244 26.05155898 -53.67165692 26.7173539 -51.49487305 28.9375 C-50.85458664 29.57816406 -50.21430023 30.21882813 -49.55461121 30.87890625 C-48.8804567 31.57886719 -48.20630219 32.27882812 -47.51171875 33 C-46.80852005 33.71027344 -46.10532135 34.42054688 -45.3808136 35.15234375 C-43.13770925 37.42343448 -40.91260911 39.71128892 -38.6875 42 C-37.16977403 43.54280299 -35.65090692 45.08448429 -34.13085938 46.625 C-30.40723412 50.40375106 -26.69824408 54.19641393 -23 58 C-19.38861457 56.81259354 -15.89454356 55.58318989 -12.4375 54 C-11.67050781 53.65453125 -10.90351563 53.3090625 -10.11328125 52.953125 C-9.41589844 52.63859375 -8.71851563 52.3240625 -8 52 C-4.92063899 50.66114739 -3.36246468 50 0 50 C0 33.5 0 17 0 0 Z M6 98 C5.29230469 98.30550781 4.58460938 98.61101562 3.85546875 98.92578125 C-6.15755242 103.74816448 -14.61739241 112.84788368 -19 123 C-19.31582031 123.63550781 -19.63164062 124.27101563 -19.95703125 124.92578125 C-23.91817087 134.24078995 -23.60604735 147.10563423 -20 156.4375 C-13.31707285 169.93402607 -3.84306903 179.0331599 10 185 C23.48651491 188.52761155 36.87770452 186.21092018 48.796875 179.40234375 C52.02112322 177.36506579 52.02112322 177.36506579 55 175 C55 174.34 55 173.68 55 173 C55.86238281 172.69835937 55.86238281 172.69835937 56.7421875 172.390625 C59.93124165 170.42643248 61.20675735 167.94463986 63.125 164.75 C63.80820312 163.63109375 64.49140625 162.5121875 65.1953125 161.359375 C71.37238188 149.86093417 70.90931089 137.73722465 68.02734375 125.359375 C65.20402337 116.1272247 58.19187772 109.19588027 51 103 C50.34 103 49.68 103 49 103 C49 102.34 49 101.68 49 101 C47.0848421 100.18395001 45.16781166 99.37229368 43.25 98.5625 C42.18265625 98.11003906 41.1153125 97.65757812 40.015625 97.19140625 C29.91995785 93.20283309 15.77201326 93.14372566 6 98 Z " fill="#050505" transform="translate(313,208)"/>
<path d="M0 0 C1.79058287 0.00138269 1.79058287 0.00138269 3.61733913 0.00279331 C4.610924 0.00151167 4.610924 0.00151167 5.62458128 0.00020415 C7.86026683 -0.0014525 10.09587855 0.00407369 12.33155727 0.00952244 C13.92774358 0.0098043 15.52393001 0.0096466 17.12011623 0.00907993 C21.46703708 0.0087919 25.81393058 0.01468948 30.16084504 0.02165389 C34.6985776 0.02788655 39.23631072 0.02849116 43.7740469 0.0296793 C52.37301653 0.03279287 60.97197352 0.04100661 69.57093757 0.05102879 C79.35795542 0.06218911 89.14497385 0.06770017 98.93199646 0.07272422 C119.07031762 0.08318921 139.20862663 0.10098955 159.34693813 0.12304783 C159.34693813 8.37304783 159.34693813 16.62304783 159.34693813 25.12304783 C105.55693813 25.12304783 51.76693813 25.12304783 -3.65306187 25.12304783 C-3.65306187 0.16942738 -3.65306187 0.16942738 0 0 Z " fill="#0B0B0B" transform="translate(177.65306186676025,114.87695217132568)"/>
<path d="M0 0 C30.69 0 61.38 0 93 0 C93 7.92 93 15.84 93 24 C62.31 24 31.62 24 0 24 C0 16.08 0 8.16 0 0 Z " fill="#080808" transform="translate(174,162)"/>
<path d="M0 0 C6.67525404 -0.02290404 13.3503728 -0.04283264 20.02563477 -0.05493164 C22.29842591 -0.05997325 24.5712138 -0.06680637 26.84399414 -0.07543945 C30.10303551 -0.08751261 33.36203417 -0.09322987 36.62109375 -0.09765625 C37.64400009 -0.10281754 38.66690643 -0.10797882 39.72080994 -0.11329651 C40.66170975 -0.11337204 41.60260956 -0.11344757 42.57202148 -0.11352539 C43.40475082 -0.115746 44.23748016 -0.11796661 45.09544373 -0.12025452 C47 0 47 0 48 1 C48 8.92 48 16.84 48 25 C32.16 25 16.32 25 0 25 C0 16.75 0 8.5 0 0 Z " fill="#161616" transform="translate(104,208)"/>
<path d="M0 0 C0.91765137 -0.00315216 1.83530273 -0.00630432 2.78076172 -0.009552 C4.27760498 -0.00651566 4.27760498 -0.00651566 5.8046875 -0.00341797 C6.82191895 -0.00437469 7.83915039 -0.00533142 8.88720703 -0.00631714 C11.04264386 -0.00699908 13.19808272 -0.00514382 15.35351562 -0.00097656 C18.66541121 0.00437148 21.97717117 -0.0009211 25.2890625 -0.00732422 C27.37760447 -0.00666344 29.46614635 -0.00538228 31.5546875 -0.00341797 C32.55258301 -0.0054422 33.55047852 -0.00746643 34.57861328 -0.009552 C35.49626465 -0.00639984 36.41391602 -0.00324768 37.359375 0 C38.17132324 0.00079559 38.98327148 0.00159119 39.81982422 0.00241089 C41.6796875 0.12939453 41.6796875 0.12939453 42.6796875 1.12939453 C42.6796875 9.04939453 42.6796875 16.96939453 42.6796875 25.12939453 C26.8396875 25.12939453 10.9996875 25.12939453 -5.3203125 25.12939453 C-5.3203125 0.00521315 -5.3203125 0.00521315 0 0 Z " fill="#111111" transform="translate(109.3203125,114.87060546875)"/>
<path d="M0 0 C15.84 0 31.68 0 48 0 C48 7.92 48 15.84 48 24 C32.16 24 16.32 24 0 24 C0 16.08 0 8.16 0 0 Z " fill="#0D0D0D" transform="translate(104,162)"/>
</svg>
