<?xml version="1.0" encoding="UTF-8"?>
<svg version="1.1" xmlns="http://www.w3.org/2000/svg" width="500" height="500">
<path d="M0 0 C0.83480449 -0.00384115 1.66960899 -0.00768229 2.52971059 -0.01163983 C3.44681599 -0.01077335 4.36392139 -0.00990687 5.30881786 -0.00901413 C6.7702662 -0.01347081 6.7702662 -0.01347081 8.26123875 -0.01801753 C11.54079419 -0.02672061 14.82031318 -0.02821414 18.09987926 -0.02970505 C20.44523732 -0.03433206 22.79059462 -0.03935656 25.13595104 -0.04475021 C31.51820384 -0.05788698 37.90044611 -0.0643216 44.28271031 -0.06876087 C48.26766334 -0.07168938 52.25261347 -0.07579376 56.23756504 -0.08026505 C67.27030091 -0.09245761 78.30303483 -0.10275698 89.33577728 -0.10614014 C90.04192164 -0.1063597 90.74806599 -0.10657927 91.47560866 -0.10680549 C92.18344417 -0.10702377 92.89127968 -0.10724204 93.62056476 -0.10746694 C95.05491308 -0.1079104 96.48926141 -0.10835697 97.92360973 -0.10880661 C98.99083958 -0.10913875 98.99083958 -0.10913875 100.07962962 -0.10947761 C111.60846465 -0.11342569 123.13723647 -0.13088006 134.66604707 -0.15416613 C146.50192343 -0.1778795 158.33776807 -0.19034198 170.17366856 -0.19150805 C176.81932838 -0.19242482 183.4649154 -0.19849579 190.1105547 -0.21632767 C196.36086862 -0.23277222 202.61102606 -0.23498139 208.86135387 -0.22618866 C211.15673459 -0.22541636 213.45212359 -0.22978625 215.74748325 -0.23964691 C218.87863017 -0.25231027 222.00921816 -0.24651989 225.14036083 -0.23606491 C226.05077407 -0.24412132 226.9611873 -0.25217772 227.89918882 -0.26047826 C233.90413016 -0.21351609 237.81718116 0.88464814 242.76541424 4.47341728 C244.43812609 6.88577966 244.29860333 8.74121262 244.30947399 11.65959549 C244.32082378 12.80923279 244.33217358 13.95887009 244.3438673 15.14334488 C244.3409367 16.405755 244.3380061 17.66816513 244.33498669 18.96883011 C244.34232561 20.31090376 244.35091132 21.65297108 244.36065197 22.99502945 C244.38289773 26.64182117 244.38579709 30.28838715 244.38390446 33.93523741 C244.38378488 36.97946421 244.39234411 40.02364297 244.40068197 43.06785643 C244.41992774 50.25053771 244.42279591 57.43310276 244.41604137 64.61580276 C244.40940208 72.02487517 244.43225729 79.43344954 244.46935511 86.84242094 C244.50004978 93.20347031 244.51141234 99.56435948 244.50751829 105.92548144 C244.5054502 109.72468406 244.51093829 113.52349934 244.53541088 117.32263184 C244.55767169 120.89661367 244.55580701 124.46978624 244.53548336 128.04377174 C244.53044638 129.9786943 244.55009764 131.91363188 244.57049084 133.84845352 C244.47872002 143.30715539 244.47872002 143.30715539 241.50161266 146.38743973 C236.99493261 149.42608295 233.30427886 149.99705282 227.91506481 149.13142776 C224.91506481 146.69392776 224.91506481 146.69392776 222.91506481 144.13142776 C222.58506481 143.80142776 222.25506481 143.47142776 221.91506481 143.13142776 C221.81915282 141.56255142 221.79318485 139.98934984 221.7948103 138.41754532 C221.79274405 136.89150885 221.79274405 136.89150885 221.79063606 135.33464336 C221.79423417 134.20466962 221.79783228 133.07469587 221.80153942 131.9104805 C221.80141889 130.7109855 221.80129835 129.5114905 221.80117416 128.27564716 C221.80192376 124.37208677 221.80955415 120.46857343 221.81740856 116.56502151 C221.81887783 114.16336973 221.81989863 111.76171763 221.82046032 109.36006546 C221.82571491 100.42968136 221.83967596 91.49930411 221.85256481 82.56892776 C221.87318981 62.62455276 221.89381481 42.68017776 221.91506481 22.13142776 C135.29006481 22.62642776 135.29006481 22.62642776 46.91506481 23.13142776 C58.30006481 29.07142776 58.30006481 29.07142776 69.91506481 35.13142776 C80.22756481 40.81892776 80.22756481 40.81892776 83.19362926 42.45637894 C92.37953393 47.47192847 101.76147584 52.08558376 111.1369276 56.73274612 C122.74334051 62.49026056 134.22545362 68.42667667 145.50442028 74.80867386 C147.26319506 75.77373784 149.0476026 76.69250673 150.84524059 77.58308792 C151.82863415 78.07986038 152.8120277 78.57663284 153.82522106 79.08845901 C154.72506725 79.52778763 155.62491344 79.96711624 156.5520277 80.41975784 C159.70990732 82.70717328 160.49552927 84.47802288 161.91506481 88.13142776 C162.33687302 91.57654042 162.30716295 94.99058626 162.27582836 98.45781326 C162.27839164 99.49607856 162.28095491 100.53434386 162.28359586 101.60407174 C162.28853593 105.08193579 162.27203666 108.55936544 162.25564098 112.03718948 C162.25479476 114.53065353 162.25526976 117.02411833 162.2569685 119.51758194 C162.25765158 124.88523694 162.24914432 130.2527568 162.23225498 135.62037659 C162.20785197 143.38098656 162.20005839 151.14154366 162.19629101 158.90218784 C162.18972856 171.49393065 162.16977302 184.08561508 162.14138317 196.6773262 C162.11383724 208.90746646 162.09260628 221.13759086 162.07985973 233.36775589 C162.07867748 234.4989562 162.07867748 234.4989562 162.07747134 235.65300904 C162.07355617 239.43635516 162.06976506 243.2197014 162.06603563 247.0030477 C162.03494615 278.37922612 161.97964656 309.75529597 161.91506481 341.13142776 C181.71506481 341.13142776 201.51506481 341.13142776 221.91506481 341.13142776 C221.82805309 327.68328323 221.82805309 327.68328323 221.73928356 313.96345901 C221.71049369 307.56823947 221.68486143 301.17306852 221.66379547 294.77782536 C221.63607359 286.48986708 221.60086332 278.20216003 221.53786755 269.91438675 C221.48801983 263.3532526 221.45577089 256.79230788 221.44462234 250.23098963 C221.4381057 246.756944 221.42279948 243.28344028 221.38641453 239.80956841 C221.34611885 235.93083058 221.34511628 232.05262216 221.34743786 228.17366409 C221.32047329 226.44736519 221.32047329 226.44736519 221.29296398 224.68619156 C221.34924976 216.01694387 221.34924976 216.01694387 224.32383251 212.92956924 C227.91838266 210.43519245 230.58177473 209.82554846 234.91506481 210.13142776 C238.57693377 211.51326511 241.49964082 213.0277547 243.91506481 216.13142776 C244.29817486 218.67303658 244.29817486 218.67303658 244.30947399 221.77348709 C244.32082378 222.94836685 244.33217358 224.12324661 244.3438673 225.33372879 C244.3409367 226.62419113 244.3380061 227.91465347 244.33498669 229.24422073 C244.34232545 230.6158505 244.35091112 231.98747408 244.36065197 233.3590889 C244.38289933 237.08645535 244.38579701 240.81360095 244.38390446 244.54102468 C244.38378488 247.65235491 244.39234379 250.76363813 244.40068197 253.8749553 C244.41992829 261.21584901 244.4227957 268.55662901 244.41604137 275.89754105 C244.40940195 283.47020386 244.43225772 291.04237941 244.46935511 298.61494339 C244.50004806 305.11611836 244.51141253 311.61713658 244.50751829 318.11838257 C244.50545004 322.00141892 244.51094091 325.88407631 244.53541088 329.76704407 C244.55766881 333.41981462 244.55580929 337.0717933 244.53548336 340.72456741 C244.53044543 342.70242949 244.55009961 344.68030624 244.57049084 346.65806961 C244.48817777 355.32734389 244.48817777 355.32734389 241.62661266 359.34215164 C240.73180187 359.93261276 239.83699108 360.52307388 238.91506481 361.13142776 C238.29951733 361.55986984 237.68396984 361.98831192 237.0497694 362.42973709 C233.91717575 363.45944011 231.05272378 363.36983349 227.75979137 363.35847855 C226.69089924 363.35891663 226.69089924 363.35891663 225.60041332 363.35936356 C223.252047 363.35797353 220.9040005 363.34242799 218.55568981 363.32674026 C216.92473047 363.32300897 215.29376889 363.32016254 213.66280651 363.31816483 C209.3752677 363.31053756 205.08786491 363.29089689 200.80037975 363.26875687 C196.42326224 363.24827889 192.0461227 363.23915893 187.66897106 363.22908401 C179.0842733 363.20765012 170.49968599 363.17352515 161.91506481 363.13142776 C161.92172665 363.99506943 161.92838848 364.85871109 161.93525219 365.74852371 C161.99543754 373.89936857 162.04107694 382.05013847 162.07050133 390.20115471 C162.08613742 394.39138797 162.10733788 398.58143715 162.14138317 402.77156448 C162.17405034 406.81753593 162.1919333 410.86333065 162.19969654 414.90942383 C162.20522688 416.45075511 162.21602635 417.99207705 162.23225498 419.53333282 C162.25412774 421.69726361 162.25702773 423.86047009 162.25564098 426.02449417 C162.26563374 427.86982239 162.26563374 427.86982239 162.27582836 429.75242996 C161.76711698 434.51714262 160.37144688 437.91777604 156.66506481 441.00642776 C152.22007139 442.82483416 148.86343769 442.92212217 144.44973278 441.13093948 C141.58423065 439.69844878 138.77932512 438.18487903 135.97756481 436.63142776 C133.90653569 435.51575695 131.8349194 434.40117543 129.76272106 433.28767776 C128.75741344 432.74240433 127.75210583 432.19713089 126.71633434 431.63533401 C123.15276959 429.72217741 119.54571698 427.91288314 115.91506481 426.13142776 C99.76025549 418.12662189 83.87987674 409.60470055 68.06740856 400.94783401 C58.06999789 395.47734284 48.08634369 390.07760978 37.72756481 385.31892776 C28.99069522 381.30023403 20.60476909 376.69320041 12.19631481 372.03377151 C8.92867897 370.22464871 5.6475332 368.45931132 2.32131481 366.76033401 C1.63311657 366.40648636 0.94491833 366.0526387 0.23586559 365.68806839 C-1.56753631 364.76668162 -3.37678263 363.85675832 -5.18649769 362.94783401 C-8.38028025 360.94633956 -9.99321596 359.25635747 -12.08493519 356.13142776 C-12.58748251 353.27954108 -12.58748251 353.27954108 -12.59109306 350.08248615 C-12.6076646 348.24954599 -12.6076646 348.24954599 -12.62457091 346.37957674 C-12.6166139 345.02676238 -12.60827623 343.67395022 -12.59959888 342.32114029 C-12.60492395 340.8815386 -12.61198941 339.44194246 -12.62064594 338.00235695 C-12.6393058 334.04596889 -12.63295695 330.08995429 -12.62249291 326.13355052 C-12.61551031 321.86692008 -12.63149168 317.60036709 -12.64449024 313.33375931 C-12.66615141 304.97501606 -12.66599792 296.61640885 -12.6578647 288.25764675 C-12.65156909 281.46480188 -12.6526977 274.67199674 -12.65913677 267.8791523 C-12.66003843 266.91296101 -12.66094008 265.94676973 -12.66186906 264.95129992 C-12.66372023 262.98858896 -12.66558279 261.02587802 -12.66745662 259.06316709 C-12.68404252 240.65057414 -12.67530923 222.23805778 -12.65847104 203.82546943 C-12.64377395 186.9747724 -12.65840122 170.12425367 -12.6872412 153.2735796 C-12.71662355 135.97740305 -12.72761084 118.68130883 -12.718059 101.38510841 C-12.71703644 99.42924529 -12.71604183 97.47338215 -12.71507549 95.517519 C-12.7145991 94.55516373 -12.71412271 93.59280845 -12.71363189 92.6012909 C-12.71146619 85.81628187 -12.72128013 79.03135064 -12.73584652 72.24635887 C-12.75334952 63.97803143 -12.75328181 55.70993133 -12.73049486 47.44161291 C-12.719334 43.22206534 -12.71623157 39.00291863 -12.73479557 34.78338814 C-12.75156904 30.92117428 -12.74529276 27.05971184 -12.72057878 23.19754695 C-12.71568466 21.79989024 -12.71924079 20.40217329 -12.73206622 19.00456686 C-12.83205437 7.26194528 -12.83205437 7.26194528 -9.73317337 3.32284832 C-6.4386099 0.59659274 -4.14400621 0.00715806 0 0 Z " fill="#010101" transform="translate(79.08493518829346,28.868572235107422)"/>
<path d="M0 0 C3.81529208 2.94533725 6.06857546 6.63892772 8.68359375 10.6484375 C9.83869325 12.37837293 10.99496747 14.10752448 12.15234375 15.8359375 C12.73242188 16.70734375 13.3125 17.57875 13.91015625 18.4765625 C16.44088054 22.24375939 19.05529759 25.94893588 21.68359375 29.6484375 C22.17706299 30.34517578 22.67053223 31.04191406 23.17895508 31.75976562 C24.6585846 33.84842663 26.13982042 35.93594209 27.62109375 38.0234375 C34.52892714 47.77123651 41.40288775 57.54265143 48.24609375 67.3359375 C49.29555176 68.83181396 49.29555176 68.83181396 50.36621094 70.35791016 C51.02008789 71.29554199 51.67396484 72.23317383 52.34765625 73.19921875 C53.22284912 74.45085815 53.22284912 74.45085815 54.11572266 75.7277832 C57.16807611 80.38254797 58.19943183 83.3364464 57.62109375 89.0234375 C54.9169569 94.23140477 51.66446066 98.95158889 48.24609375 103.7109375 C47.17533584 105.21452666 46.10504269 106.71844687 45.03515625 108.22265625 C44.47731445 109.00560059 43.91947266 109.78854492 43.34472656 110.59521484 C40.41495244 114.72262751 37.51940065 118.87389858 34.62109375 123.0234375 C28.77826496 131.37847406 22.91783138 139.72074063 17.02490234 148.04052734 C16.08675282 149.36568395 15.14958256 150.69153435 14.21337891 152.01806641 C12.87260104 153.91746233 11.52854019 155.81449186 10.18359375 157.7109375 C9.42175781 158.78730469 8.65992188 159.86367188 7.875 160.97265625 C-0.00707146 171.64145662 -0.00707146 171.64145662 -4.46484375 172.359375 C-8.5520079 172.42912183 -10.80013344 172.37311274 -14.37890625 170.2109375 C-17.40421846 166.90200227 -17.82943617 163.66879854 -17.75878906 159.24023438 C-17.01746302 154.91424438 -14.32196417 151.73029793 -11.75390625 148.2734375 C-11.16996094 147.45560791 -10.58601563 146.63777832 -9.984375 145.79516602 C-8.75025838 144.06750142 -7.50888175 142.34500259 -6.26074219 140.62744141 C-3.83397667 137.2693873 -1.47514355 133.86653498 0.88525391 130.46166992 C7.60387425 120.78250984 14.48668796 111.22301533 21.42285156 101.69897461 C22.52124251 100.16306242 23.57368098 98.59455666 24.62109375 97.0234375 C23.89479452 97.02289273 23.16849529 97.02234797 22.420187 97.02178669 C4.74280462 97.00681548 -12.93429794 96.96435506 -30.61153603 96.89134693 C-39.16016108 96.85670257 -47.70862498 96.83134215 -56.25732422 96.82788086 C-63.708914 96.82484018 -71.16021673 96.80433597 -78.61169565 96.76291293 C-82.55681535 96.74159036 -86.50152704 96.72897831 -90.44670486 96.73728371 C-94.16188089 96.74482886 -97.87623055 96.72898371 -101.59125519 96.69537735 C-103.60109861 96.68323293 -105.61104384 96.69572779 -107.62088013 96.70899963 C-117.47278813 96.58380964 -117.47278813 96.58380964 -121.17367554 93.60722351 C-123.74037517 90.59991794 -124.30147121 89.69454121 -124.75390625 85.7734375 C-124.25963329 80.83070792 -122.84062324 79.48515449 -119.37890625 76.0234375 C-116.72813874 74.69805374 -114.71722229 74.88355056 -111.74752808 74.86521912 C-110.54996887 74.8554303 -109.35240967 74.84564148 -108.11856079 74.83555603 C-106.78460733 74.8296515 -105.45065346 74.82384107 -104.11669922 74.81811523 C-102.71740427 74.80853903 -101.31811222 74.7985291 -99.91882324 74.78811646 C-96.11329649 74.76103338 -92.3077573 74.74004228 -88.50218725 74.72011447 C-84.52764958 74.69827587 -80.55315042 74.6708768 -76.5786438 74.64405823 C-69.04929681 74.59410254 -61.51992847 74.5491744 -53.99053967 74.50603586 C-45.41989337 74.45668804 -36.8492857 74.40176082 -28.27867675 74.34635627 C-10.64545577 74.23249208 6.98780165 74.12566272 24.62109375 74.0234375 C24.25870605 73.5223497 23.89631836 73.0212619 23.52294922 72.50498962 C21.84699072 70.18716581 20.17154012 67.86897529 18.49609375 65.55078125 C17.92632812 64.76296265 17.3565625 63.97514404 16.76953125 63.16345215 C8.58427582 51.83605853 0.54204521 40.41220202 -7.37890625 28.8984375 C-8.18908203 27.72583374 -8.18908203 27.72583374 -9.015625 26.52954102 C-18.38836015 12.84670521 -18.38836015 12.84670521 -17.37890625 5.0234375 C-13.42321609 -1.38750863 -6.88882949 -2.82792672 0 0 Z " fill="#050505" transform="translate(375.37890625,124.9765625)"/>
<path d="M0 0 C4.17846305 1.29723147 7.95008446 2.87814118 11.82421875 4.90625 C12.92475586 5.47972168 14.02529297 6.05319336 15.15917969 6.64404297 C16.32352539 7.25650879 17.48787109 7.86897461 18.6875 8.5 C19.91419156 9.14116377 21.14108179 9.78194759 22.36816406 10.42236328 C29.73530219 14.27102074 37.089117 18.1453101 44.43652344 22.03149414 C50.05166389 24.99451108 55.69315004 27.90500201 61.34121704 30.80459595 C67.97017887 34.20841313 74.58767189 37.63406846 81.20111084 41.06793213 C82.89878476 41.94755682 84.59897373 42.82232258 86.29931641 43.69677734 C89.12585877 45.15532963 91.93959543 46.6356515 94.75 48.125 C95.55880615 48.53741943 96.3676123 48.94983887 97.20092773 49.37475586 C97.93384033 49.76928955 98.66675293 50.16382324 99.421875 50.5703125 C100.04674805 50.89789551 100.67162109 51.22547852 101.31542969 51.56298828 C104.32839749 54.13318082 105.78768157 57.28185296 106.27367437 61.2146585 C106.37814752 63.92289114 106.38525642 66.61620744 106.36076355 69.3263855 C106.36332682 70.36465079 106.3658901 71.40291609 106.36853105 72.47264397 C106.37347112 75.95050803 106.35697185 79.42793767 106.34057617 82.90576172 C106.33972995 85.39922577 106.34020494 87.89269056 106.34190369 90.38615417 C106.34258677 95.75380917 106.33407951 101.12132904 106.31719017 106.48894882 C106.29278716 114.24955879 106.28499358 122.01011589 106.2812262 129.77076007 C106.27466375 142.36250288 106.25470821 154.95418732 106.22631836 167.54589844 C106.19877243 179.7760387 106.17754147 192.0061631 106.16479492 204.23632812 C106.16400675 204.99046167 106.16321858 205.74459521 106.16240653 206.52158128 C106.15849135 210.3049274 106.15470024 214.08827363 106.15097082 217.87161994 C106.11988134 249.24779836 106.06458175 280.6238682 106 312 C125.8 312 145.6 312 166 312 C165.91298828 298.55185547 165.91298828 298.55185547 165.82421875 284.83203125 C165.79542888 278.43681171 165.76979661 272.04164075 165.74873066 265.64639759 C165.72100878 257.35843932 165.68579851 249.07073227 165.62280273 240.78295898 C165.57295501 234.22182483 165.54070608 227.66088012 165.52955753 221.09956187 C165.52304089 217.62551623 165.50773467 214.15201252 165.47134972 210.67814064 C165.43105404 206.79940282 165.43005147 202.92119439 165.43237305 199.04223633 C165.40540848 197.31593742 165.40540848 197.31593742 165.37789917 195.55476379 C165.43418495 186.88551611 165.43418495 186.88551611 168.4087677 183.79814148 C172.00331785 181.30376468 174.66670991 180.6941207 179 181 C182.66186896 182.38183734 185.584576 183.89632693 188 187 C188.38311005 189.54160881 188.38311005 189.54160881 188.39440918 192.64205933 C188.40575897 193.81693909 188.41710876 194.99181885 188.42880249 196.20230103 C188.42587189 197.49276337 188.42294128 198.78322571 188.41992188 200.11279297 C188.42726064 201.48442274 188.4358463 202.85604632 188.44558716 204.22766113 C188.46783452 207.95502759 188.4707322 211.68217318 188.46883965 215.40959692 C188.46872007 218.52092715 188.47727897 221.63221036 188.48561716 224.74352753 C188.50486348 232.08442125 188.50773089 239.42520125 188.50097656 246.76611328 C188.49433714 254.33877609 188.51719291 261.91095164 188.55429029 269.48351562 C188.58498325 275.9846906 188.59634771 282.48570882 188.59245348 288.98695481 C188.59038522 292.86999116 188.5958761 296.75264855 188.62034607 300.6356163 C188.642604 304.28838685 188.64074448 307.94036553 188.62041855 311.59313965 C188.61538062 313.57100172 188.6350348 315.54887847 188.65542603 317.52664185 C188.57311296 326.19591613 188.57311296 326.19591613 185.71154785 330.21072388 C184.81673706 330.801185 183.92192627 331.39164612 183 332 C182.38445251 332.42844208 181.76890503 332.85688416 181.13470459 333.29830933 C178.00211093 334.32801234 175.13765897 334.23840572 171.84472656 334.22705078 C170.77583443 334.22748886 170.77583443 334.22748886 169.68534851 334.22793579 C167.33698219 334.22654577 164.98893569 334.21100022 162.640625 334.1953125 C161.00966566 334.1915812 159.37870408 334.18873478 157.7477417 334.18673706 C153.46020289 334.1791098 149.1728001 334.15946912 144.88531494 334.1373291 C140.50819743 334.11685112 136.13105788 334.10773117 131.75390625 334.09765625 C123.16920849 334.07622235 114.58462118 334.04209739 106 334 C106.00666183 334.86364166 106.01332367 335.72728333 106.02018738 336.61709595 C106.08037273 344.7679408 106.12601213 352.9187107 106.15543652 361.06972694 C106.17107261 365.2599602 106.19227306 369.45000939 106.22631836 373.64013672 C106.25898553 377.68610817 106.27686848 381.73190288 106.28463173 385.77799606 C106.29016207 387.31932735 106.30096154 388.86064929 106.31719017 390.40190506 C106.33906293 392.56583585 106.34196292 394.72904233 106.34057617 396.89306641 C106.35056892 398.73839462 106.35056892 398.73839462 106.36076355 400.6210022 C105.85205216 405.38571486 104.45638207 408.78634828 100.75 411.875 C97.02751098 413.39783642 95.02801865 413.58471238 91 413 C87.19119526 411.22666986 83.58888822 409.18059031 80 407 C81.79296875 406.37890625 81.79296875 406.37890625 84 406 C85.71918522 407.00556117 87.43696477 408.01415534 89.1328125 409.05859375 C92.21502667 410.61259713 94.64456379 410.50648094 98 410 C100.31377147 408.10415891 100.31377147 408.10415891 102 406 C102.66 406 103.32 406 104 406 C104 381.58 104 357.16 104 332 C109.51203125 331.97421875 115.0240625 331.9484375 120.703125 331.921875 C124.19405705 331.89670991 127.68490216 331.87037979 131.17578125 331.83984375 C136.7172886 331.79148135 142.25859476 331.74744733 147.80029297 331.72900391 C152.26794084 331.71386526 156.73506262 331.67946989 161.2024765 331.63169098 C162.90726907 331.61684825 164.61213674 331.60895733 166.31699371 331.60811615 C168.7044134 331.60575333 171.09037104 331.57873169 173.47753906 331.54589844 C174.18316483 331.5509288 174.88879059 331.55595917 175.61579895 331.56114197 C178.95960089 331.48994132 180.72204642 331.21318441 183.40765381 329.15338135 C186.01162848 325.63194203 186.13010052 322.75255774 186.15390015 318.50306702 C186.16250061 317.36039871 186.17110107 316.21773041 186.17996216 315.04043579 C186.18422211 313.78580536 186.18848206 312.53117493 186.19287109 311.23852539 C186.2007741 309.90468635 186.20904317 308.57084944 186.21765137 307.23701477 C186.24383961 302.85724929 186.2591717 298.47747437 186.2734375 294.09765625 C186.27879772 292.58989392 186.28417523 291.08213164 186.28956985 289.57436943 C186.31119023 283.30434147 186.3299286 277.03431607 186.34119225 270.76426029 C186.35744498 261.77630846 186.39066388 252.78878796 186.44759309 243.80099875 C186.4862583 237.48160734 186.5058206 231.16233149 186.51111281 224.84282488 C186.51476986 221.06764381 186.52682825 217.29292311 186.55921555 213.51786995 C186.58923826 209.96774874 186.59562955 206.41836789 186.58383179 202.8681469 C186.58350507 200.94372516 186.60800731 199.01934951 186.63320923 197.09509277 C186.62489075 195.94960464 186.61657227 194.80411652 186.60800171 193.62391663 C186.61131186 192.62858949 186.614622 191.63326235 186.61803246 190.60777378 C185.76489371 187.00797441 184.04495547 185.96439142 181 184 C178.71473481 183.37955008 178.71473481 183.37955008 176.4375 183.5 C175.69371094 183.4896875 174.94992187 183.479375 174.18359375 183.46875 C171.1304935 184.21154362 169.98655851 185.59695627 168 188 C167.39954528 190.48227377 167.39954528 190.48227377 167.48101807 193.22650146 C167.46710526 194.28376938 167.45319244 195.34103729 167.43885803 196.43034363 C167.44640358 198.16203545 167.44640358 198.16203545 167.45410156 199.92871094 C167.44376389 201.14849136 167.43342621 202.36827179 167.42277527 203.62501526 C167.39833869 206.96584838 167.39151059 210.30584824 167.39249516 213.6467123 C167.38936627 217.13949819 167.36374867 220.6321173 167.34051514 224.12481689 C167.29994949 230.73684256 167.27961318 237.3487696 167.26654124 243.96090055 C167.24911629 252.22793423 167.20469513 260.49479429 167.16015625 268.76171875 C167.08082949 283.50780785 167.04235021 298.2536554 167 313 C146.21 313 125.42 313 104 313 C103.97494385 305.26071045 103.9498877 297.5214209 103.92407227 289.54760742 C103.8432663 264.80323445 103.75760745 240.05888057 103.66888306 215.31453479 C103.65511298 211.47295497 103.64138596 207.63137499 103.62768555 203.78979492 C103.62495724 203.02498447 103.62222894 202.26017402 103.61941796 201.4721875 C103.5753066 189.07789134 103.53468549 176.68358606 103.49534739 164.28927394 C103.45492502 151.57773597 103.41076779 138.86621497 103.36312145 126.15470201 C103.3338241 118.30691378 103.30746273 110.45912684 103.28482103 102.61131654 C103.26716688 96.60022317 103.24432404 90.58916112 103.21950912 84.57809258 C103.21013053 82.10730833 103.20245817 79.63651695 103.19658089 77.16572189 C103.18833347 73.8036166 103.17406057 70.44159035 103.15821838 67.07951355 C103.15724028 66.09216931 103.15626217 65.10482507 103.15525442 64.08756131 C103.14977998 63.1898389 103.14430554 62.29211648 103.1386652 61.36719036 C103.13467814 60.20239825 103.13467814 60.20239825 103.13061053 59.01407498 C103.07226732 56.79318058 103.07226732 56.79318058 102 54 C100.02127968 53.27260028 98.01530315 52.61886806 96 52 C93.51498885 50.80514416 91.07225208 49.58509242 88.6328125 48.3046875 C87.95322479 47.95238068 87.27363708 47.60007385 86.57345581 47.23709106 C84.42182111 46.1204732 82.27338956 44.99784665 80.125 43.875 C78.65906228 43.11288081 77.19291844 42.35115796 75.7265625 41.58984375 C72.14864118 39.73113839 68.57357827 37.8670408 65 36 C65 35.34 65 34.68 65 34 C64.16855469 33.7421875 63.33710938 33.484375 62.48046875 33.21875 C58.63790099 31.87320439 54.98525682 30.24384938 51.3125 28.5 C50.57338379 28.1503418 49.83426758 27.80068359 49.07275391 27.44042969 C41.15726346 23.65627707 33.42186368 19.54553074 25.68017578 15.42089844 C20.57146605 12.71250978 15.44064295 10.04635314 10.3125 7.375 C9.28946777 6.84165039 8.26643555 6.30830078 7.21240234 5.75878906 C4.80844581 4.50551815 2.40431133 3.25259009 0 2 C0 1.34 0 0.68 0 0 Z " fill="#C6C6C6" transform="translate(135,58)"/>
<path d="M0 0 C0.83480449 -0.00384115 1.66960899 -0.00768229 2.52971059 -0.01163983 C3.44681599 -0.01077335 4.36392139 -0.00990687 5.30881786 -0.00901413 C6.7702662 -0.01347081 6.7702662 -0.01347081 8.26123875 -0.01801753 C11.54079419 -0.02672061 14.82031318 -0.02821414 18.09987926 -0.02970505 C20.44523732 -0.03433206 22.79059462 -0.03935656 25.13595104 -0.04475021 C31.51820384 -0.05788698 37.90044611 -0.0643216 44.28271031 -0.06876087 C48.26766334 -0.07168938 52.25261347 -0.07579376 56.23756504 -0.08026505 C67.27030091 -0.09245761 78.30303483 -0.10275698 89.33577728 -0.10614014 C90.04192164 -0.1063597 90.74806599 -0.10657927 91.47560866 -0.10680549 C92.18344417 -0.10702377 92.89127968 -0.10724204 93.62056476 -0.10746694 C95.05491308 -0.1079104 96.48926141 -0.10835697 97.92360973 -0.10880661 C98.99083958 -0.10913875 98.99083958 -0.10913875 100.07962962 -0.10947761 C111.60846465 -0.11342569 123.13723647 -0.13088006 134.66604707 -0.15416613 C146.50192343 -0.1778795 158.33776807 -0.19034198 170.17366856 -0.19150805 C176.81932838 -0.19242482 183.4649154 -0.19849579 190.1105547 -0.21632767 C196.36086862 -0.23277222 202.61102606 -0.23498139 208.86135387 -0.22618866 C211.15673459 -0.22541636 213.45212359 -0.22978625 215.74748325 -0.23964691 C218.87863017 -0.25231027 222.00921816 -0.24651989 225.14036083 -0.23606491 C226.05077407 -0.24412132 226.9611873 -0.25217772 227.89918882 -0.26047826 C233.90413016 -0.21351609 237.81718116 0.88464814 242.76541424 4.47341728 C244.43812609 6.88577966 244.29860333 8.74121262 244.30947399 11.65959549 C244.32082378 12.80923279 244.33217358 13.95887009 244.3438673 15.14334488 C244.3409367 16.405755 244.3380061 17.66816513 244.33498669 18.96883011 C244.34232561 20.31090376 244.35091132 21.65297108 244.36065197 22.99502945 C244.38289773 26.64182117 244.38579709 30.28838715 244.38390446 33.93523741 C244.38378488 36.97946421 244.39234411 40.02364297 244.40068197 43.06785643 C244.41992774 50.25053771 244.42279591 57.43310276 244.41604137 64.61580276 C244.40940208 72.02487517 244.43225729 79.43344954 244.46935511 86.84242094 C244.50004978 93.20347031 244.51141234 99.56435948 244.50751829 105.92548144 C244.5054502 109.72468406 244.51093829 113.52349934 244.53541088 117.32263184 C244.55767169 120.89661367 244.55580701 124.46978624 244.53548336 128.04377174 C244.53044638 129.9786943 244.55009764 131.91363188 244.57049084 133.84845352 C244.47872002 143.30715539 244.47872002 143.30715539 241.50161266 146.38743973 C238.16444221 148.63753742 236.39564829 149.30388393 232.41506481 149.38142776 C231.22397106 149.42009964 231.22397106 149.42009964 230.00881481 149.45955276 C229.31787731 149.35127151 228.62693981 149.24299026 227.91506481 149.13142776 C227.25506481 148.14142776 226.59506481 147.15142776 225.91506481 146.13142776 C226.90506481 146.46142776 227.89506481 146.79142776 228.91506481 147.13142776 C233.11494299 147.52030537 235.21113719 147.590511 238.79006481 145.25642776 C242.00734772 142.03914486 242.04206857 140.26207318 242.05550671 135.82394791 C242.06121685 134.69803741 242.06692699 133.57212692 242.07281017 132.41209793 C242.07392803 131.17100266 242.07504589 129.92990738 242.07619762 128.65120316 C242.08116253 127.34875153 242.08612743 126.0462999 242.09124279 124.70438004 C242.10437404 121.12589928 242.11081295 117.54743729 242.11525345 113.9689362 C242.11818251 111.73465487 242.12228696 109.50037868 242.12675762 107.26609993 C242.14043336 100.27954858 242.15010011 93.29300899 242.15395951 86.30644518 C242.1584431 78.23375923 242.17600449 70.16124237 242.20496011 62.08860785 C242.22655139 55.85332453 242.23666239 49.61808889 242.23800063 43.38276857 C242.23905034 39.65636001 242.24499325 35.93011037 242.26282024 32.20374107 C242.28230803 28.04940466 242.27802221 23.89542387 242.27151012 19.74104691 C242.2853323 17.88244034 242.2853323 17.88244034 242.29943371 15.98628616 C242.29386456 14.85755585 242.2882954 13.72882553 242.28255749 12.56589127 C242.28402405 11.5830922 242.28549061 10.60029314 242.28700161 9.58771229 C241.8406378 6.63990901 241.22212888 5.95061167 238.91506481 4.13142776 C236.94477003 3.68553232 236.94477003 3.68553232 234.74645615 3.75669765 C233.89300128 3.74949111 233.03954641 3.74228457 232.16022927 3.73485965 C231.22230488 3.74223393 230.2843805 3.74960822 229.31803417 3.75720596 C228.32190638 3.75323156 227.3257786 3.74925715 226.29946512 3.74516231 C222.94600949 3.73550203 219.59297181 3.74738016 216.2395277 3.75911331 C213.84166334 3.75668657 211.44379999 3.75296839 209.04593945 3.74805069 C203.19954827 3.73960184 197.35326937 3.74517149 191.50689394 3.75731363 C184.70095691 3.7709229 177.89504937 3.76929669 171.0891022 3.7671803 C158.94618485 3.76398888 146.80332611 3.77566639 134.66042614 3.79524612 C122.87362412 3.81424673 111.08689082 3.82133496 99.30007458 3.81575394 C86.47118842 3.80969748 73.6423325 3.80987109 60.81344885 3.82123977 C59.44568853 3.82244708 58.07792821 3.82365307 56.71016788 3.82485771 C56.03717279 3.82546125 55.3641777 3.82606479 54.67078881 3.82668662 C49.92522054 3.83056792 45.17966352 3.8301713 40.43409443 3.82827187 C34.04755607 3.82592934 27.66108707 3.83447189 21.2745676 3.85033226 C18.92675295 3.85458413 16.57892934 3.85541963 14.23111248 3.85264206 C11.03367006 3.84943257 7.83649411 3.85847114 4.63907909 3.87073135 C3.23553861 3.86506237 3.23553861 3.86506237 1.80364376 3.85927886 C0.94758115 3.86511105 0.09151853 3.87094324 -0.79048538 3.87695217 C-1.89758886 3.87825234 -1.89758886 3.87825234 -3.02705806 3.87957877 C-5.46022126 4.17735637 -7.03351016 4.79179004 -9.08493519 6.13142776 C-10.14331121 9.30655583 -10.21345603 11.55163708 -10.21915627 14.88742161 C-10.22361411 16.09494943 -10.22807195 17.30247725 -10.23266488 18.54659683 C-10.23257558 19.89350276 -10.23238573 21.24040869 -10.23210621 22.58731461 C-10.2354049 24.01280956 -10.23913047 25.43830359 -10.24324769 26.86379641 C-10.25327504 30.79038064 -10.25698565 34.71694958 -10.259637 38.64354479 C-10.2635378 42.87473681 -10.2731162 47.1059167 -10.28184986 51.33710098 C-10.30161921 61.55917524 -10.31168046 71.78125049 -10.32057765 82.00333908 C-10.32495923 86.81469429 -10.33032632 91.62604839 -10.33556652 96.43740273 C-10.35257823 112.42671385 -10.36707353 128.41602427 -10.37431526 144.40534306 C-10.37622521 148.55533029 -10.37814554 152.70531751 -10.3801012 156.85530472 C-10.38058494 157.88678706 -10.38106868 158.91826941 -10.38156708 159.98100879 C-10.38987163 176.69923631 -10.41521596 193.41739238 -10.44768188 210.13558868 C-10.48072698 227.29156234 -10.49876166 244.44749965 -10.5019595 261.60350531 C-10.50412682 271.23936658 -10.51290794 280.87512361 -10.53842068 290.5109539 C-10.56009276 298.71523961 -10.5681953 306.91939577 -10.5584539 315.12370685 C-10.55389921 319.31079826 -10.555863 323.49762215 -10.57521534 327.68467712 C-10.59277661 331.51725042 -10.59190709 335.34935967 -10.57631805 339.18193742 C-10.57393123 340.56889575 -10.57832101 341.95588562 -10.5901467 343.34279559 C-10.83190863 353.07590808 -10.83190863 353.07590808 -6.08493519 361.13142776 C-9.24609294 359.76159274 -10.07764439 359.14236397 -12.08493519 356.13142776 C-12.33908552 353.52793807 -12.33908552 353.52793807 -12.34499741 350.32858181 C-12.352063 349.1106038 -12.35912859 347.89262579 -12.36640829 346.63773936 C-12.36415673 345.27904236 -12.36171021 343.92034566 -12.35908985 342.56164932 C-12.36354006 341.12377814 -12.36885339 339.68590942 -12.37495857 338.24804431 C-12.38917516 334.28723798 -12.39080118 330.32650997 -12.39036167 326.36568177 C-12.39200666 322.0976696 -12.4050672 317.82969002 -12.41655445 313.5616951 C-12.43942819 304.22499127 -12.44732758 294.88831014 -12.4523809 285.5515821 C-12.4556351 279.72402021 -12.4621559 273.89646494 -12.46938229 268.06890678 C-12.48895117 251.94062608 -12.50535373 235.81235153 -12.50825882 219.68405819 C-12.50844639 218.6514766 -12.50863396 217.61889501 -12.50882721 216.55502306 C-12.50919347 214.46163865 -12.50955717 212.36825424 -12.50991832 210.27486982 C-12.51010114 209.23568092 -12.51028395 208.19649201 -12.5104723 207.12581253 C-12.51065285 206.08535834 -12.5108334 205.04490415 -12.51101942 203.97292105 C-12.51456198 187.10917361 -12.54158823 170.24555379 -12.57897019 153.38185062 C-12.61702437 136.07670991 -12.63641608 118.77163258 -12.63671833 101.46644908 C-12.63730355 91.74673207 -12.64583683 82.0271673 -12.674716 72.3074894 C-12.69919126 64.03181224 -12.70653892 55.75634284 -12.69146847 47.4806393 C-12.68428374 43.25704235 -12.68522378 39.03385594 -12.70787907 34.81030464 C-12.72841788 30.94433166 -12.72591729 27.07908617 -12.70500422 23.21312151 C-12.70149946 21.81405041 -12.70646113 20.41492736 -12.72070866 19.01592442 C-12.83271317 7.26097414 -12.83271317 7.26097414 -9.73401451 3.32200718 C-6.43878601 0.59711342 -4.14379433 0.00715769 0 0 Z " fill="#979797" transform="translate(79.08493518829346,28.868572235107422)"/>
<path d="M0 0 C4.17846305 1.29723147 7.95008446 2.87814118 11.82421875 4.90625 C12.92475586 5.47972168 14.02529297 6.05319336 15.15917969 6.64404297 C16.32352539 7.25650879 17.48787109 7.86897461 18.6875 8.5 C19.91419156 9.14116377 21.14108179 9.78194759 22.36816406 10.42236328 C29.73530219 14.27102074 37.089117 18.1453101 44.43652344 22.03149414 C50.05166389 24.99451108 55.69315004 27.90500201 61.34121704 30.80459595 C67.97017887 34.20841313 74.58767189 37.63406846 81.20111084 41.06793213 C82.89878476 41.94755682 84.59897373 42.82232258 86.29931641 43.69677734 C89.12585877 45.15532963 91.93959543 46.6356515 94.75 48.125 C95.55880615 48.53741943 96.3676123 48.94983887 97.20092773 49.37475586 C97.93384033 49.76928955 98.66675293 50.16382324 99.421875 50.5703125 C100.04674805 50.89789551 100.67162109 51.22547852 101.31542969 51.56298828 C104.32839749 54.13318082 105.78768157 57.28185296 106.27367437 61.2146585 C106.37814752 63.92289114 106.38525642 66.61620744 106.36076355 69.3263855 C106.36332682 70.36465079 106.3658901 71.40291609 106.36853105 72.47264397 C106.37347112 75.95050803 106.35697185 79.42793767 106.34057617 82.90576172 C106.33972995 85.39922577 106.34020494 87.89269056 106.34190369 90.38615417 C106.34258677 95.75380917 106.33407951 101.12132904 106.31719017 106.48894882 C106.29278716 114.24955879 106.28499358 122.01011589 106.2812262 129.77076007 C106.27466375 142.36250288 106.25470821 154.95418732 106.22631836 167.54589844 C106.19877243 179.7760387 106.17754147 192.0061631 106.16479492 204.23632812 C106.16400675 204.99046167 106.16321858 205.74459521 106.16240653 206.52158128 C106.15849135 210.3049274 106.15470024 214.08827363 106.15097082 217.87161994 C106.11988135 249.24778907 106.06682785 280.62388566 106 312 C105.67 312 105.34 312 105 312 C104.99503478 310.06018533 104.99503478 310.06018533 104.98996925 308.08118248 C104.9109596 277.38623617 104.82174273 246.69133842 104.71994839 215.99645986 C104.70742945 212.21883156 104.69499669 208.44120298 104.68261719 204.66357422 C104.68015119 203.91151316 104.6776852 203.1594521 104.67514448 202.38460131 C104.63541573 190.20573096 104.6026689 178.02685132 104.57250018 165.84795396 C104.54139129 153.35221996 104.50278429 140.85652537 104.45720994 128.36083567 C104.42932241 120.64970903 104.40729052 112.93861123 104.39273749 105.2274477 C104.38095379 99.31553069 104.35874025 93.40368183 104.33261681 87.49180984 C104.3235344 85.0658293 104.31784926 82.63983334 104.31578636 80.21383667 C104.31246858 76.90525581 104.29700379 73.59694716 104.2784729 70.28842163 C104.281375 68.84385875 104.281375 68.84385875 104.28433573 67.37011278 C104.24409956 62.57463289 104.09295702 58.42308283 102 54 C99.27620865 52.74966103 99.27620865 52.74966103 96 52 C93.51498885 50.80514416 91.07225208 49.58509242 88.6328125 48.3046875 C87.95322479 47.95238068 87.27363708 47.60007385 86.57345581 47.23709106 C84.42182111 46.1204732 82.27338956 44.99784665 80.125 43.875 C78.65906228 43.11288081 77.19291844 42.35115796 75.7265625 41.58984375 C72.14864118 39.73113839 68.57357827 37.8670408 65 36 C65 35.34 65 34.68 65 34 C64.16855469 33.7421875 63.33710938 33.484375 62.48046875 33.21875 C58.63790099 31.87320439 54.98525682 30.24384938 51.3125 28.5 C50.57338379 28.1503418 49.83426758 27.80068359 49.07275391 27.44042969 C41.15726346 23.65627707 33.42186368 19.54553074 25.68017578 15.42089844 C20.57146605 12.71250978 15.44064295 10.04635314 10.3125 7.375 C9.28946777 6.84165039 8.26643555 6.30830078 7.21240234 5.75878906 C4.80844581 4.50551815 2.40431133 3.25259009 0 2 C0 1.34 0 0.68 0 0 Z " fill="#FDFDFD" transform="translate(135,58)"/>
<path d="M0 0 C3.68970016 2.8267418 5.8917409 6.32173675 8.41796875 10.18359375 C9.17110352 11.30797852 9.17110352 11.30797852 9.93945312 12.45507812 C11.17076255 14.29617888 12.39227048 16.14302969 13.60546875 17.99609375 C13.27546875 18.65609375 12.94546875 19.31609375 12.60546875 19.99609375 C11.09959136 18.04203857 9.60068231 16.08328091 8.10546875 14.12109375 C7.46158203 13.28771484 7.46158203 13.28771484 6.8046875 12.4375 C3.60546875 8.22265625 3.60546875 8.22265625 3.60546875 5.99609375 C2.61546875 5.66609375 1.62546875 5.33609375 0.60546875 4.99609375 C0.06921875 4.29484375 -0.46703125 3.59359375 -1.01953125 2.87109375 C-3.79483432 0.68006501 -4.54172173 0.74146776 -7.95703125 0.99609375 C-10.86838401 1.47972307 -12.14416974 1.79125252 -14.45703125 3.68359375 C-15.66284415 6.65793224 -15.62806904 8.79781351 -15.39453125 11.99609375 C-14.3273892 14.46854331 -14.3273892 14.46854331 -12.64453125 16.80859375 C-12.00644531 17.75734375 -11.36835938 18.70609375 -10.7109375 19.68359375 C-9.94070089 20.78908581 -9.1684048 21.89314459 -8.39453125 22.99609375 C-7.72719971 23.95515625 -7.72719971 23.95515625 -7.04638672 24.93359375 C-3.53075195 29.97947933 0.03030379 34.99227267 3.60546875 39.99609375 C4.04294434 40.60888184 4.48041992 41.22166992 4.93115234 41.85302734 C5.75490561 43.0066685 6.57887558 44.16015495 7.40307617 45.31347656 C8.20172308 46.43109574 9.00006526 47.54893274 9.7980957 48.66699219 C11.5857704 51.17139102 13.37436288 53.67500932 15.171875 56.17236328 C16.82111466 58.46443602 18.46363717 60.76121072 20.10546875 63.05859375 C20.62238281 63.77337891 21.13929688 64.48816406 21.671875 65.22460938 C22.15527344 65.90330078 22.63867188 66.58199219 23.13671875 67.28125 C23.77963867 68.17662476 23.77963867 68.17662476 24.43554688 69.09008789 C25.60546875 70.99609375 25.60546875 70.99609375 27.60546875 75.99609375 C-20.24453125 75.99609375 -68.09453125 75.99609375 -117.39453125 75.99609375 C-117.39453125 75.66609375 -117.39453125 75.33609375 -117.39453125 74.99609375 C-47.10453125 74.50109375 -47.10453125 74.50109375 24.60546875 73.99609375 C20.31546875 68.05609375 16.02546875 62.11609375 11.60546875 55.99609375 C5.20685327 46.99804073 -1.1367414 37.96731396 -7.39453125 28.87109375 C-8.20470703 27.69848999 -8.20470703 27.69848999 -9.03125 26.50219727 C-18.40398515 12.81936146 -18.40398515 12.81936146 -17.39453125 4.99609375 C-13.44076873 -1.41172826 -6.8747367 -2.88223056 0 0 Z " fill="#B1B1B1" transform="translate(375.39453125,125.00390625)"/>
<path d="M0 0 C25.08 0 50.16 0 76 0 C75.67 0.66 75.34 1.32 75 2 C50.91 2 26.82 2 2 2 C2.11865103 24.76695285 2.11865103 24.76695285 2.27026367 47.53369141 C2.28381348 51.94995117 2.28381348 51.94995117 2.28633118 54.02133179 C2.29091984 55.45942982 2.30143357 56.89751674 2.31672668 58.33554077 C2.33880061 60.52158473 2.3417143 62.70692711 2.34057617 64.89306641 C2.34723801 66.12328522 2.35389984 67.35350403 2.36076355 68.6210022 C1.85205216 73.38571486 0.45638207 76.78634828 -3.25 79.875 C-6.97248902 81.39783642 -8.97198135 81.58471238 -13 81 C-16.80880474 79.22666986 -20.41111178 77.18059031 -24 75 C-22.20703125 74.37890625 -22.20703125 74.37890625 -20 74 C-18.28081478 75.00556117 -16.56303523 76.01415534 -14.8671875 77.05859375 C-11.78497333 78.61259713 -9.35543621 78.50648094 -6 78 C-3.68622853 76.10415891 -3.68622853 76.10415891 -2 74 C-1.34 74 -0.68 74 0 74 C0 49.58 0 25.16 0 0 Z " fill="#BABABA" transform="translate(239,390)"/>
<path d="M0 0 C60.06 0 120.12 0 182 0 C182.375 59.6875 182.375 59.6875 182.47802734 78.53393555 C182.51793614 84.10893468 182.51793614 84.10893468 182.56045532 89.68391418 C182.57814062 92.16700472 182.59194585 94.65012474 182.60269165 97.133255 C182.61972191 100.89454592 182.64906308 104.6555595 182.68115234 108.41674805 C182.68441056 110.07606747 182.68441056 110.07606747 182.6877346 111.7689085 C182.70446189 113.29061515 182.70446189 113.29061515 182.7215271 114.84306335 C182.72705786 115.72337565 182.73258862 116.60368795 182.73828697 117.51067638 C183.03081299 120.29308253 183.85383392 122.45979273 185 125 C184.34 125 183.68 125 183 125 C180.82088106 121.73132159 180.75165562 120.82616517 180.75949097 117.04560852 C180.75535848 115.51543956 180.75535848 115.51543956 180.7511425 113.9543581 C180.76193683 112.27019181 180.76193683 112.27019181 180.77294922 110.55200195 C180.77270815 109.35226588 180.77246708 108.15252981 180.7722187 106.9164381 C180.77371434 103.02364434 180.78895881 99.13104086 180.8046875 95.23828125 C180.80762715 92.83866468 180.80966807 90.43904682 180.81079102 88.03942871 C180.82128737 79.13043295 180.84920966 70.22146462 180.875 61.3125 C180.91625 41.409375 180.9575 21.50625 181 1 C94.375 1.495 94.375 1.495 6 2 C8.97 3.65 11.94 5.3 15 7 C11 8 11 8 8.45703125 6.85546875 C7.58433594 6.30503906 6.71164063 5.75460938 5.8125 5.1875 C4.93207031 4.64480469 4.05164063 4.10210937 3.14453125 3.54296875 C1 2 1 2 0 0 Z " fill="#DADADA" transform="translate(120,50)"/>
<path d="M0 0 C0.66 0.33 1.32 0.66 2 1 C1.34 1.495 0.68 1.99 0 2.5 C-2.46031258 5.57539072 -2.5277937 7.26829574 -2.328125 11.09765625 C-1.87112031 13.74719535 -0.96318127 15.18223956 1 17 C4.1759039 18.05863463 6.45224893 18.13774386 9.78959656 18.15821838 C10.99694458 18.1680072 12.2042926 18.17779602 13.44822693 18.18788147 C14.78799399 18.1937856 16.12776146 18.19959605 17.4675293 18.20532227 C18.8768238 18.21490135 20.28611544 18.22491145 21.69540405 18.23532104 C25.52359835 18.26237292 29.35180498 18.28338095 33.18004203 18.30332303 C37.17993149 18.32518083 41.17978293 18.35257053 45.17964172 18.37937927 C52.75499642 18.42930894 60.33037222 18.47424676 67.90576822 18.51740164 C76.52964074 18.56677166 85.1534751 18.62169066 93.77731073 18.67708123 C111.51817173 18.79090549 129.25906874 18.89774357 147 19 C145.56792815 21.92065655 144.01138624 24.57986688 142.171875 27.265625 C141.61886719 28.07386719 141.06585938 28.88210937 140.49609375 29.71484375 C139.91988281 30.55144531 139.34367188 31.38804687 138.75 32.25 C138.18925781 33.07113281 137.62851562 33.89226562 137.05078125 34.73828125 C133.87902005 39.360409 130.62528341 43.88262143 127.17285156 48.29980469 C125.80958688 50.1072526 125.80958688 50.1072526 125 53 C123.68345142 54.3499094 122.34823294 55.68173466 121 57 C119.93180375 58.41822479 118.90074898 59.86509537 117.90625 61.3359375 C117.35066406 62.15320313 116.79507813 62.97046875 116.22265625 63.8125 C115.65417969 64.658125 115.08570313 65.50375 114.5 66.375 C113.93152344 67.21289062 113.36304688 68.05078125 112.77734375 68.9140625 C111.67541357 70.5401126 110.57696343 72.1685278 109.48242188 73.79956055 C108.5716678 75.15144238 107.652858 76.49798978 106.72070312 77.83520508 C104.18992644 81.49095937 103.26621761 83.50558289 104 88 C105.16722516 90.49041576 106.51054402 92.67272504 108 95 C105.71216703 94.08486681 104.26550272 93.34515354 102.75 91.375 C101.38311215 87.0465218 101.04410718 83.0247122 102.99609375 78.89013672 C104.45478659 76.60383536 106.00770971 74.42703298 107.625 72.25 C108.20894531 71.43217041 108.79289062 70.61434082 109.39453125 69.77172852 C110.62864787 68.04406392 111.8700245 66.32156509 113.11816406 64.60400391 C115.54492958 61.2459498 117.9037627 57.84309748 120.26416016 54.43823242 C126.9827805 44.75907234 133.86559421 35.19957783 140.80175781 25.67553711 C141.90014876 24.13962492 142.95258723 22.57111916 144 21 C143.27370077 20.99945523 142.54740154 20.99891047 141.79909325 20.99834919 C124.12171087 20.98337798 106.44460831 20.94091756 88.76737022 20.86790943 C80.21874517 20.83326507 71.67028127 20.80790465 63.12158203 20.80444336 C55.66999225 20.80140268 48.21868952 20.78089847 40.7672106 20.73947543 C36.8220909 20.71815286 32.87737921 20.70554081 28.93220139 20.71384621 C25.21702536 20.72139136 21.5026757 20.70554621 17.78765106 20.67193985 C15.77780764 20.65979543 13.76786241 20.67229029 11.75802612 20.68556213 C1.90611812 20.56037214 1.90611812 20.56037214 -1.79476929 17.58378601 C-4.36146892 14.57648044 -4.92256496 13.67110371 -5.375 9.75 C-4.88516222 4.85162217 -3.3748579 3.45922935 0 0 Z " fill="#B4B4B4" transform="translate(256,201)"/>
<path d="M0 0 C3 2 3 2 4 5 C4.85073717 13.84766657 -0.4599948 19.844401 -5.375 26.6875 C-6.44575791 28.19108916 -7.51605106 29.69500937 -8.5859375 31.19921875 C-9.1437793 31.98216309 -9.70162109 32.76510742 -10.27636719 33.57177734 C-13.20614131 37.69919001 -16.1016931 41.85046108 -19 46 C-24.84282879 54.35503656 -30.70326237 62.69730313 -36.59619141 71.01708984 C-37.53434093 72.34224645 -38.47151119 73.66809685 -39.40771484 74.99462891 C-40.74849271 76.89402483 -42.09255356 78.79105436 -43.4375 80.6875 C-44.58025391 82.30205078 -44.58025391 82.30205078 -45.74609375 83.94921875 C-51.88225399 92.254836 -51.88225399 92.254836 -56 95 C-58.26171875 95.1953125 -58.26171875 95.1953125 -60.6875 95.125 C-61.49574219 95.10695313 -62.30398438 95.08890625 -63.13671875 95.0703125 C-63.75160156 95.04710937 -64.36648438 95.02390625 -65 95 C-65 94.67 -65 94.34 -65 94 C-63.07942708 93.90234375 -61.15885417 93.8046875 -59.23828125 93.70703125 C-53.66803795 91.94749541 -50.28750812 85.93649404 -47 81.375 C-46.52997559 80.72893799 -46.05995117 80.08287598 -45.57568359 79.41723633 C-41.26327989 73.44898834 -37.12186719 67.36654521 -32.98730469 61.27441406 C-28.64072099 54.88691525 -24.15080185 48.61446485 -19.60742188 42.3659668 C-15.65890804 36.93073385 -11.7953552 31.44697791 -8.0078125 25.8984375 C-6.6818154 23.98425491 -5.32263692 22.09258908 -3.9296875 20.2265625 C0.8321196 13.80724045 0.8321196 13.80724045 2 6 C1.16830035 2.66500695 1.16830035 2.66500695 0 0 Z " fill="#C3C3C3" transform="translate(429,202)"/>
<path d="M0 0 C4.17846305 1.29723147 7.95008446 2.87814118 11.82421875 4.90625 C12.92475586 5.47972168 14.02529297 6.05319336 15.15917969 6.64404297 C16.32352539 7.25650879 17.48787109 7.86897461 18.6875 8.5 C19.91419156 9.14116377 21.14108179 9.78194759 22.36816406 10.42236328 C29.73384935 14.27026177 37.08634794 18.14354476 44.43212891 22.02929688 C49.41373291 24.65821218 54.41490999 27.24768602 59.42578125 29.8203125 C73.40812016 37.00127035 87.34445429 44.20753496 101 52 C100.505 52.99 100.505 52.99 100 54 C88.45 48.06 76.9 42.12 65 36 C65 35.34 65 34.68 65 34 C64.16855469 33.7421875 63.33710938 33.484375 62.48046875 33.21875 C58.63790099 31.87320439 54.98525682 30.24384938 51.3125 28.5 C50.57338379 28.1503418 49.83426758 27.80068359 49.07275391 27.44042969 C41.15726346 23.65627707 33.42186368 19.54553074 25.68017578 15.42089844 C20.57146605 12.71250978 15.44064295 10.04635314 10.3125 7.375 C9.28946777 6.84165039 8.26643555 6.30830078 7.21240234 5.75878906 C4.80844581 4.50551815 2.40431133 3.25259009 0 2 C0 1.34 0 0.68 0 0 Z " fill="#B4B4B4" transform="translate(135,58)"/>
<path d="M0 0 C4.54538244 0.59512597 8.11747846 2.48572198 12.0625 4.6875 C13.3873073 5.4114635 14.7128396 6.13410174 16.0390625 6.85546875 C16.69938477 7.21560059 17.35970703 7.57573242 18.04003906 7.94677734 C22.63327797 10.4150425 27.32099498 12.69970703 32 15 C32 15.66 32 16.32 32 17 C32.763125 17.226875 33.52625 17.45375 34.3125 17.6875 C44.94140138 21.47066829 54.94613817 26.91965424 65 32 C65.66 32.33 66.32 32.66 67 33 C67 33.66 67 34.32 67 35 C62.57487782 33.63174955 58.56827249 31.90327088 54.4375 29.8125 C53.77621094 29.47790771 53.11492187 29.14331543 52.43359375 28.79858398 C49.95249162 27.53864931 47.47614933 26.26964154 45 25 C43.35668701 24.15985352 43.35668701 24.15985352 41.68017578 23.30273438 C27.64436901 16.12278776 13.63537028 8.92354588 0 1 C0 0.67 0 0.34 0 0 Z " fill="#C6C6C6" transform="translate(148,429)"/>
<path d="M0 0 C0.495 0.99 0.495 0.99 1 2 C-1.03857253 5.00211303 -3.08143181 8.00128581 -5.125 11 C-5.69476563 11.83917969 -6.26453125 12.67835938 -6.8515625 13.54296875 C-10.05402345 18.23748536 -13.32863368 22.83271899 -16.83154297 27.30859375 C-18.19121567 29.10859095 -18.19121567 29.10859095 -19 32 C-20.31654858 33.3499094 -21.65176706 34.68173466 -23 36 C-24.06819625 37.41822479 -25.09925102 38.86509537 -26.09375 40.3359375 C-26.64933594 41.15320313 -27.20492188 41.97046875 -27.77734375 42.8125 C-28.34582031 43.658125 -28.91429687 44.50375 -29.5 45.375 C-30.06847656 46.21289062 -30.63695312 47.05078125 -31.22265625 47.9140625 C-32.32458643 49.5401126 -33.42303657 51.1685278 -34.51757812 52.79956055 C-35.4283322 54.15144238 -36.347142 55.49798978 -37.27929688 56.83520508 C-39.81007356 60.49095937 -40.73378239 62.50558289 -40 67 C-38.83277484 69.49041576 -37.48945598 71.67272504 -36 74 C-38.28783297 73.08486681 -39.73449728 72.34515354 -41.25 70.375 C-42.61688785 66.0465218 -42.95589282 62.0247122 -41.00390625 57.89013672 C-39.54521341 55.60383536 -37.99229029 53.42703298 -36.375 51.25 C-35.79105469 50.43217041 -35.20710938 49.61434082 -34.60546875 48.77172852 C-33.37135213 47.04406392 -32.1299755 45.32156509 -30.88183594 43.60400391 C-28.45507042 40.2459498 -26.0962373 36.84309748 -23.73583984 33.43823242 C-17.0172195 23.75907234 -10.13440579 14.19957783 -3.19824219 4.67553711 C-2.09985124 3.13962492 -1.04741277 1.57111916 0 0 Z " fill="#D9D9D9" transform="translate(400,222)"/>
<path d="M0 0 C5.39026228 0.52895097 9.24229489 2.46333696 13.875 5.0625 C14.56335938 5.43955078 15.25171875 5.81660156 15.9609375 6.20507812 C17.6449213 7.12893035 19.32307467 8.06339667 21 9 C21 9.66 21 10.32 21 11 C21.78632812 11.23460937 22.57265625 11.46921875 23.3828125 11.7109375 C28.04184689 13.37128453 32.42295661 15.47943692 36.875 17.625 C37.75414062 18.04523438 38.63328125 18.46546875 39.5390625 18.8984375 C41.69422878 19.9291692 43.84779922 20.96309426 46 22 C46 22.66 46 23.32 46 24 C47.98 24.66 49.96 25.32 52 26 C49 27 49 27 46.31469727 25.91113281 C45.24276123 25.34749023 44.1708252 24.78384766 43.06640625 24.203125 C42.480336 23.89816605 41.89426575 23.59320709 41.29043579 23.27900696 C39.3757693 22.27919349 37.46916975 21.26496848 35.5625 20.25 C34.25270835 19.56175531 32.94256649 18.87417672 31.63208008 18.18725586 C21.00944891 12.60265331 10.47123136 6.86340196 0 1 C0 0.67 0 0.34 0 0 Z " fill="#DEDEDE" transform="translate(73,390)"/>
<path d="M0 0 C4.52997047 4.16154404 7.78779315 8.83158085 11.1875 13.9375 C12.32954268 15.63100906 13.47278509 17.32370965 14.6171875 19.015625 C15.46555176 20.27149414 15.46555176 20.27149414 16.33105469 21.55273438 C18.7737361 25.13457148 21.28310927 28.66655474 23.8125 32.1875 C24.23877686 32.78103271 24.66505371 33.37456543 25.10424805 33.98608398 C26.06787367 35.32522683 27.03365279 36.66281977 28 38 C27.67 38.66 27.34 39.32 27 40 C25.27027535 37.64624159 23.54120809 35.29200485 21.8125 32.9375 C21.32974609 32.28072266 20.84699219 31.62394531 20.34960938 30.94726562 C19.3790598 29.62497325 18.41047245 28.3012384 17.44384766 26.97607422 C16.47533383 25.65054988 15.50096124 24.32928795 14.52099609 23.01220703 C11 18.22191358 11 18.22191358 11 16 C10.01 15.67 9.02 15.34 8 15 C6.71875 13.07421875 6.71875 13.07421875 5.5 10.6875 C4.23315802 8.23096348 3.02424152 6.03173124 1.34375 3.83203125 C0 2 0 2 0 0 Z " fill="#D3D3D3" transform="translate(394,152)"/>
<path d="M0 0 C3.61416597 3.43693892 6.51613514 6.93696719 9.3125 11.0625 C9.88182251 11.89817505 9.88182251 11.89817505 10.46264648 12.75073242 C11.64854041 14.49602418 12.82551749 16.24701206 14 18 C14.39251953 18.58458984 14.78503906 19.16917969 15.18945312 19.77148438 C17.47129856 23.17330069 19.74062089 26.58322777 22 30 C21.67 30.66 21.34 31.32 21 32 C0 4.30434783 0 4.30434783 0 0 Z " fill="#BEBEBE" transform="translate(380,168)"/>
<path d="M0 0 C0.66 0 1.32 0 2 0 C0.39520021 5.07195982 -2.67615512 8.84226877 -5.875 13 C-6.40480469 13.69867188 -6.93460937 14.39734375 -7.48046875 15.1171875 C-8.97732921 17.08576329 -10.48686631 19.04392129 -12 21 C-12.72445313 21.94875 -13.44890625 22.8975 -14.1953125 23.875 C-16.31954526 26.37626108 -17.90955169 27.90583348 -21.26171875 28.1953125 C-22.06222656 28.17210937 -22.86273438 28.14890625 -23.6875 28.125 C-24.89986328 28.09792969 -24.89986328 28.09792969 -26.13671875 28.0703125 C-26.75160156 28.04710937 -27.36648438 28.02390625 -28 28 C-28 27.67 -28 27.34 -28 27 C-26.07942708 26.90234375 -24.15885417 26.8046875 -22.23828125 26.70703125 C-16.46212894 24.8824526 -12.84518895 18.30301598 -9.4375 13.5625 C-8.96892578 12.91990234 -8.50035156 12.27730469 -8.01757812 11.61523438 C-5.85286017 8.63307049 -3.75904604 5.63934862 -1.78515625 2.52734375 C-1.19605469 1.69332031 -0.60695313 0.85929687 0 0 Z " fill="#C4C4C4" transform="translate(392,269)"/>
<path d="M0 0 C3.03846794 0.44683352 5.15186284 1.08253415 7.875 2.5625 C11.59596453 4.27414368 13.94719861 4.52536314 18 4 C20.31377147 2.10415891 20.31377147 2.10415891 22 0 C22.66 0 23.32 0 24 0 C23.69611836 2.93752254 23.19330344 3.84080893 20.875 5.75 C17.08268222 7.39883382 15.13518815 7.60026925 11 7 C7.19119526 5.22666986 3.58888822 3.18059031 0 1 C0 0.67 0 0.34 0 0 Z " fill="#A4A4A4" transform="translate(215,464)"/>
<path d="M0 0 C5.72992618 0.50342802 9.93964482 2.83132463 14.875 5.5625 C15.65875 5.98724609 16.4425 6.41199219 17.25 6.84960938 C19.17100387 7.89210538 21.0873249 8.94232445 23 10 C23 10.66 23 11.32 23 12 C17.6462535 10.44347945 12.99849053 8.0182491 8.125 5.375 C7.34125 4.95476562 6.5575 4.53453125 5.75 4.1015625 C3.83107943 3.0718978 1.91522397 2.03652433 0 1 C0 0.67 0 0.34 0 0 Z " fill="#A4A4A4" transform="translate(125,417)"/>
<path d="M0 0 C4.6029598 1.72497507 8.93255824 3.9095871 13.3125 6.125 C14.05306641 6.49753906 14.79363281 6.87007813 15.55664062 7.25390625 C17.37201217 8.16744806 19.18613282 9.08347487 21 10 C21 10.66 21 11.32 21 12 C16.35942455 10.5671956 12.0318121 8.71409937 7.6875 6.5625 C7.05521484 6.26279297 6.42292969 5.96308594 5.77148438 5.65429688 C4.13977692 4.848062 2.56430132 3.93029311 1 3 C0.67 2.01 0.34 1.02 0 0 Z " fill="#A4A4A4" transform="translate(194,452)"/>
<path d="M0 0 C5.39026228 0.52895097 9.24229489 2.46333696 13.875 5.0625 C14.56335938 5.43955078 15.25171875 5.81660156 15.9609375 6.20507812 C17.6449213 7.12893035 19.32307467 8.06339667 21 9 C18.62077693 9.84205836 17.40070408 10.14174203 14.98535156 9.28735352 C14.2940918 8.90506592 13.60283203 8.52277832 12.890625 8.12890625 C12.13652344 7.71962891 11.38242188 7.31035156 10.60546875 6.88867188 C9.82816406 6.45103516 9.05085938 6.01339844 8.25 5.5625 C7.06083984 4.9118457 7.06083984 4.9118457 5.84765625 4.24804688 C3.89219191 3.17607546 1.94364092 2.09321878 0 1 C0 0.67 0 0.34 0 0 Z " fill="#9D9D9D" transform="translate(73,390)"/>
<path d="M0 0 C0.66 0.33 1.32 0.66 2 1 C1.24203125 1.97839844 1.24203125 1.97839844 0.46875 2.9765625 C-0.1809375 3.85054688 -0.830625 4.72453125 -1.5 5.625 C-2.1496875 6.48351562 -2.799375 7.34203125 -3.46875 8.2265625 C-5.27138431 11.4915379 -5.43499249 13.32233626 -5 17 C-4.19796304 19.11705794 -4.19796304 19.11705794 -3 20.875 C-2.34 21.90625 -1.68 22.9375 -1 24 C-3.28783297 23.08486681 -4.73449728 22.34515354 -6.25 20.375 C-7.39390658 16.75262917 -7.85672632 13.6895513 -7 10 C-4.95795836 6.42515404 -2.5757885 3.20659384 0 0 Z " fill="#D0D0D0" transform="translate(365,272)"/>
<path d="M0 0 C0.33 0.99 0.66 1.98 1 3 C-0.52195372 5.52873936 -2.06271854 7.82683409 -3.8125 10.1875 C-4.27720703 10.84169922 -4.74191406 11.49589844 -5.22070312 12.16992188 C-6.42259425 13.8235999 -7.70592265 15.41742075 -9 17 C-9.66 17 -10.32 17 -11 17 C-9.24933204 13.11390189 -6.81675994 9.72187742 -4.375 6.25 C-3.95476562 5.64800781 -3.53453125 5.04601562 -3.1015625 4.42578125 C-2.07006863 2.94886957 -1.03535421 1.47420806 0 0 Z " fill="#B7B7B7" transform="translate(404,252)"/>
<path d="M0 0 C0.66 0 1.32 0 2 0 C0.31029911 3.66398299 -1.87300211 6.90832572 -4.125 10.25 C-4.84945313 11.32765625 -5.57390625 12.4053125 -6.3203125 13.515625 C-6.87460937 14.33546875 -7.42890625 15.1553125 -8 16 C-8.33 15.01 -8.66 14.02 -9 13 C-7.6432518 10.6367271 -6.27224649 8.51208047 -4.6875 6.3125 C-4.27048828 5.70599609 -3.85347656 5.09949219 -3.42382812 4.47460938 C-2.34137989 2.93984625 -1.17602851 1.46429128 0 0 Z " fill="#C8C8C8" transform="translate(414,238)"/>
<path d="M0 0 C1.32 0 2.64 0 4 0 C4 0.66 4 1.32 4 2 C5.3303125 2.4021875 5.3303125 2.4021875 6.6875 2.8125 C9.76877548 3.91710819 12.26221405 5.22849144 15 7 C13.32421875 7.67578125 13.32421875 7.67578125 11 8 C8.45703125 6.85546875 8.45703125 6.85546875 5.8125 5.1875 C4.93207031 4.64480469 4.05164063 4.10210937 3.14453125 3.54296875 C1 2 1 2 0 0 Z " fill="#C3C3C3" transform="translate(120,50)"/>
<path d="M0 0 C0.33 0.99 0.66 1.98 1 3 C-0.36328125 5.48046875 -0.36328125 5.48046875 -2.3125 8.1875 C-2.94800781 9.08855469 -3.58351563 9.98960937 -4.23828125 10.91796875 C-5.11033203 11.94857422 -5.11033203 11.94857422 -6 13 C-6.66 13 -7.32 13 -8 13 C-6.40956621 7.91061189 -3.2553049 4.12543357 0 0 Z " fill="#B5B5B5" transform="translate(423,225)"/>
<path d="M0 0 C6.75 0.875 6.75 0.875 9 2 C9 2.66 9 3.32 9 4 C10.98 4.66 12.96 5.32 15 6 C12 7 12 7 9.08203125 5.78515625 C7.46361328 4.93244141 7.46361328 4.93244141 5.8125 4.0625 C4.72582031 3.49660156 3.63914062 2.93070312 2.51953125 2.34765625 C1.68808594 1.90292969 0.85664062 1.45820313 0 1 C0 0.67 0 0.34 0 0 Z " fill="#CCCCCC" transform="translate(110,410)"/>
<path d="M0 0 C5.47932789 1.54545146 10.11429181 4.15543212 15 7 C11.25 8.125 11.25 8.125 9 7 C9 6.34 9 5.68 9 5 C8.071875 4.731875 7.14375 4.46375 6.1875 4.1875 C3.23759634 3.08851629 1.94384814 2.37581439 0 0 Z " fill="#D8D8D8" transform="translate(191,87)"/>
<path d="M0 0 C0.66 0 1.32 0 2 0 C1.69611836 2.93752254 1.19330344 3.84080893 -1.125 5.75 C-4.59278683 7.2577334 -7.25670998 7.22019353 -11 7 C-11 6.67 -11 6.34 -11 6 C-9.9275 5.7525 -8.855 5.505 -7.75 5.25 C-3.95411278 3.98470426 -2.60376183 2.8930687 0 0 Z " fill="#CBCBCB" transform="translate(237,464)"/>
<path d="M0 0 C5.35048061 0.37328935 7.50912907 1.9957657 11 6 C6.49197399 4.74194623 3.5087188 3.09592835 0 0 Z " fill="#BABABA" transform="translate(73,390)"/>
<path d="M0 0 C4.12751449 0.60698743 7.3321148 2.03810791 11 4 C9.4375 4.75 9.4375 4.75 7 5 C4.49713591 3.86915563 2.32992278 2.47860484 0 1 C0 0.67 0 0.34 0 0 Z " fill="#ACACAC" transform="translate(148,429)"/>
<path d="M0 0 C3.80666984 1.44390925 5.26602582 3.34952803 7 7 C6.67 7.66 6.34 8.32 6 9 C4.99712471 7.68969568 3.99777175 6.37669473 3 5.0625 C2.443125 4.33160156 1.88625 3.60070312 1.3125 2.84765625 C0 1 0 1 0 0 Z " fill="#C6C6C6" transform="translate(395,191)"/>
<path d="M0 0 C4.75 1.875 4.75 1.875 7 3 C6.67 3.99 6.34 4.98 6 6 C1.125 3.375 1.125 3.375 0 0 Z " fill="#B7B7B7" transform="translate(194,452)"/>
</svg>
