<?xml version="1.0" encoding="UTF-8"?>
<svg version="1.1" xmlns="http://www.w3.org/2000/svg" width="225" height="225">
<path d="M0 0 C12.30730531 9.75834254 21.04420394 21.31435624 24 37 C25.78115776 53.17999772 21.97184624 67.67708192 12 80.58984375 C1.56160013 92.9854436 -11.9336314 99.35023238 -27.90625 100.80859375 C-39.60113785 101.55466593 -49.66935018 98.16532491 -60 93 C-62.25501633 93.8941261 -64.34456738 94.84160876 -66.5 95.9375 C-67.12567871 96.25162842 -67.75135742 96.56575684 -68.39599609 96.8894043 C-73.38514256 99.48608337 -77.66179945 102.60726266 -81.9140625 106.30078125 C-84 108 -84 108 -86.1484375 108.98046875 C-88.52058963 110.28665378 -88.89834542 111.56907626 -90 114 C-91.0107775 115.15283272 -92.05588619 116.27605045 -93.125 117.375 C-107.79784856 133.88195463 -112.38624326 154.66362002 -112.125 176.125 C-112.11494507 177.57291044 -112.10582368 179.02082768 -112.09765625 180.46875 C-112.07585344 183.97931037 -112.04146381 187.48961028 -112 191 C-108.54511985 192.72744007 -104.55150873 192.14404981 -100.74853516 192.1418457 C-99.78906479 192.14532013 -98.82959442 192.14879456 -97.84104919 192.15237427 C-95.75284024 192.15973823 -93.66462343 192.16508019 -91.57640457 192.16866493 C-88.2733953 192.17581517 -84.97053591 192.19147041 -81.66757202 192.21000671 C-72.27482139 192.26254802 -62.88215228 192.31047439 -53.48925781 192.32592773 C-47.74854741 192.33599316 -42.00821276 192.36528121 -36.2676506 192.40724754 C-34.0771913 192.41958308 -31.88667898 192.42467417 -29.69618607 192.42244911 C-26.63379887 192.4201037 -23.57249501 192.44220508 -20.51025391 192.4699707 C-19.60205399 192.46336929 -18.69385406 192.45676788 -17.75813293 192.44996643 C-11.61807412 192.54157873 -11.61807412 192.54157873 -8.46420288 194.88078308 C-6.71886799 197.40689697 -6.07513041 198.9196533 -6 202 C-8.19402985 206.59701493 -8.19402985 206.59701493 -11 208 C-12.35020593 208.0997545 -13.70512717 208.13935195 -15.05899048 208.14717102 C-15.90842224 208.15432632 -16.757854 208.16148163 -17.63302612 208.16885376 C-18.56704254 208.17154266 -19.50105896 208.17423157 -20.46337891 208.17700195 C-21.44568481 208.18357315 -22.42799072 208.19014435 -23.44006348 208.19691467 C-26.70223054 208.21668018 -29.96435145 208.22831917 -33.2265625 208.23828125 C-34.34006451 208.24235678 -35.45356651 208.2464323 -36.600811 208.25063133 C-42.49738124 208.2715086 -48.39392811 208.28580164 -54.29052734 208.29516602 C-60.37689288 208.30621776 -66.46289154 208.340599 -72.54912758 208.38033772 C-77.23152334 208.40651006 -81.91383193 208.41485856 -86.5962944 208.41844749 C-88.83932338 208.42331392 -91.08234844 208.43492944 -93.32530594 208.45348549 C-96.47058185 208.47788325 -99.61491195 208.47691008 -102.76025391 208.4699707 C-104.14306046 208.48918579 -104.14306046 208.48918579 -105.55380249 208.50878906 C-112.48158184 208.45326278 -117.84449821 206.83815531 -123.05859375 202.1484375 C-123.51363281 201.56320313 -123.96867187 200.97796875 -124.4375 200.375 C-124.91058594 199.78460938 -125.38367188 199.19421875 -125.87109375 198.5859375 C-128.44200136 194.97421263 -128.19584367 191.59247517 -128.23828125 187.30859375 C-128.246353 186.53048843 -128.25442474 185.75238312 -128.26274109 184.95069885 C-128.2766005 183.29210643 -128.28731431 181.63348526 -128.29516602 179.97485352 C-128.30653914 178.31005251 -128.32674935 176.64528351 -128.35668945 174.98071289 C-128.86714729 146.57473216 -119.13904492 121.9943605 -100 101 C-92.84237852 93.63544048 -84.68355559 88.34112067 -76 83 C-75.01 82.34 -74.02 81.68 -73 81 C-73.45890625 80.39414063 -73.9178125 79.78828125 -74.390625 79.1640625 C-83.56036952 66.64235255 -87.23449824 53.22129917 -85.4375 37.75 C-82.68977872 22.52520475 -74.63521784 9.08779075 -62 0 C-42.72892332 -11.61544348 -19.05319388 -13.39517924 0 0 Z M-60.8125 18.75 C-68.07602539 27.77801387 -71.4871166 37.84558615 -70.9375 49.4375 C-69.51321224 60.67176973 -64.41381336 69.51809635 -56 77 C-45.17930611 84.8547808 -35.01864974 86.13102665 -22 85 C-12.56878401 83.21967488 -4.85323638 77.85464244 1.07421875 70.38671875 C7.505428 60.85450714 10.26860394 51.50295934 9 40 C6.48207058 27.72331588 1.01557293 19.42664182 -9 12 C-25.63305478 1.61243077 -47.38324635 4.36151395 -60.8125 18.75 Z " fill="#211614" transform="translate(132,13)"/>
<path d="M0 0 C1.97953251 2.05566837 3.07548345 4.14753582 4.375 6.6875 C5.81059105 9.18702749 5.81059105 9.18702749 8.4375 9.9375 C11.47444644 10.01157186 12.61852805 9.90517756 15 8 C15.433125 6.824375 15.86625 5.64875 16.3125 4.4375 C18 1 18 1 21.125 -0.1875 C29.23612266 0.20497368 36.07233414 4.6355965 42 10 C43.76953125 12.02734375 43.76953125 12.02734375 45 14 C44.14928101 17.17086167 42.82905734 19.256414 41 22 C40.58480791 25.32153671 40.36282843 27.16890664 42.4375 29.875 C45.7252913 31.31842057 48.33916056 31.09902242 51.87890625 30.8125 C54 31 54 31 55.71484375 32.25 C58.68859519 36.29936366 58.18305962 41.03498041 58.1875 45.875 C58.19974609 46.56980469 58.21199219 47.26460937 58.22460938 47.98046875 C58.2369931 52.36430891 57.75585372 55.97077778 56 60 C54 61 54 61 50.1875 60.875 C46.31819739 60.85385627 43.88987275 61.20043577 41 64 C40.24954494 67.41456334 40.24954494 67.41456334 41 71 C42.31866272 72.678298 43.65080468 74.34614767 45 76 C44.94140625 78.390625 44.94140625 78.390625 44 81 C37.93844506 86.72596712 30.5255161 91.78449923 22.0625 92.1875 C20.5465625 92.0946875 20.5465625 92.0946875 19 92 C18.73445313 91.43410156 18.46890625 90.86820312 18.1953125 90.28515625 C17.84210938 89.55167969 17.48890625 88.81820312 17.125 88.0625 C16.77695313 87.33160156 16.42890625 86.60070312 16.0703125 85.84765625 C15.1315023 83.83667541 15.1315023 83.83667541 13 83 C8.89408669 82.58344778 8.89408669 82.58344778 5.25 84.1875 C3.76539167 86.34018207 2.95747831 88.57438829 2 91 C-1.57410293 92.78705147 -5.22008781 91.93352377 -9 91 C-15.24468825 88.09012308 -21.66631494 84.25554334 -25.0625 78.0625 C-25 76 -25 76 -23 73.1875 C-20.61565332 70.07766576 -20.61565332 70.07766576 -21.25 66.125 C-21.4975 65.09375 -21.745 64.0625 -22 63 C-25.24088354 61.7653777 -27.69550714 60.99402955 -31.1875 61.0625 C-34 61 -34 61 -35.8125 59.8125 C-38.4808686 55.73972688 -38.16188228 50.78128342 -38.1875 46.0625 C-38.20167969 44.87785156 -38.21585937 43.69320312 -38.23046875 42.47265625 C-37.92709514 37.90148443 -37.29532448 34.29532448 -34 31 C-30.9123526 31.18659164 -27.9067397 31.64808962 -24.84765625 32.1015625 C-21.91744165 32.30953476 -21.91744165 32.30953476 -20.12109375 30.23828125 C-18.39691117 26.79592369 -18.97559179 24.64945426 -20 21 C-22.41636938 18.08113411 -22.41636938 18.08113411 -25 16 C-23.59869937 10.70619761 -20.38429439 7.97477879 -16 5 C-5.74513908 -0.60423014 -5.74513908 -0.60423014 0 0 Z M25 12 C24.0409375 13.3921875 24.0409375 13.3921875 23.0625 14.8125 C19.74527467 18.74644891 16.04636546 20.26852357 11 21 C4.62360713 20.84005704 1.05693804 18.51475038 -3.42578125 14.19921875 C-5.06027597 12.68902947 -5.06027597 12.68902947 -7.9375 13.125 C-8.618125 13.41375 -9.29875 13.7025 -10 14 C-10.93423645 17.01031744 -11.04449911 17.86650268 -10 21 C-9.46585445 27.30291749 -10.26220265 31.79254239 -14 37 C-18.0717664 40.43838051 -21.92253557 41.78140854 -27 43 C-27 44.98 -27 46.96 -27 49 C-26.34773437 49.20753906 -25.69546875 49.41507813 -25.0234375 49.62890625 C-18.73204112 51.84666987 -14.59642635 54.2802223 -11 60 C-9.33449309 64.99652074 -9.36578835 70.05772683 -11 75.0625 C-11.33 75.701875 -11.66 76.34125 -12 77 C-8.74602492 79.25885324 -8.74602492 79.25885324 -5 80 C-4.4225 79.236875 -3.845 78.47375 -3.25 77.6875 C-0.16766402 74.00582091 2.54115533 72.37542763 7.328125 71.64453125 C13.73003116 71.28123289 18.14782744 72.77813417 23 77 C23.99 78.485 23.99 78.485 25 80 C27.49552484 79.21869929 27.49552484 79.21869929 30 78 C31.33333333 75 31.33333333 75 30 72 C29.43615871 66.30737162 29.69280094 61.85055862 33 57 C37.31087019 52.68912981 41.2316371 50.88963612 47 49 C47 47.02 47 45.04 47 43 C46.33613281 42.76925781 45.67226562 42.53851563 44.98828125 42.30078125 C38.65805467 39.96275596 34.20695037 37.78334349 30.6875 31.75 C29.30974794 26.23899175 29.58310235 20.49047837 31 15 C29.02 14.01 27.04 13.02 25 12 Z " fill="#1C1210" transform="translate(161,119)"/>
<path d="M0 0 C4.09209868 2.83299139 6.88006546 5.07228801 8 10 C8.42621845 15.07755889 8.38699513 19.37519693 6 24 C6.5775 24.12375 7.155 24.2475 7.75 24.375 C10.02335767 25.00648824 11.9253529 25.88858191 14 27 C14.2578125 26.39671875 14.515625 25.7934375 14.78125 25.171875 C16.89214293 21.41015554 20.09297543 19.65397373 24 18 C30.40704444 16.7226462 35.03040703 17.94641778 40.40625 21.515625 C42.20040423 23.186651 43.04243673 24.75930196 44 27 C46.475 25.515 46.475 25.515 49 24 C48.835 23.360625 48.67 22.72125 48.5 22.0625 C47.4247421 15.47654539 47.05871692 9.70806515 51 4 C53.4375 2.25 53.4375 2.25 56 1 C56.680625 0.5875 57.36125 0.175 58.0625 -0.25 C60.44160663 -1.1709445 61.63665048 -0.8440534 64 0 C63.566875 0.680625 63.13375 1.36125 62.6875 2.0625 C59.24556267 8.05402053 57.23368526 12.07061142 59 19 C59.99 19.99 59.99 19.99 61 21 C61 21.99 61 22.98 61 24 C61.66 24.33 62.32 24.66 63 25 C56.21079005 31.47489467 49.74021554 37.30427032 40 38 C38 37 38 37 36.5625 33.5625 C35.29809012 29.80931887 35.29809012 29.80931887 32 28 C29.0850745 27.4161804 29.0850745 27.4161804 26 28 C22.46290405 30.87903159 20.16654366 34.00899852 18 38 C9.50057795 36.42603295 1.74422098 32.61575796 -4 26 C-3.91922844 22.84990899 -3.10546117 21.16873788 -1.4375 18.5 C0.24529029 15.57340819 0.7435667 14.30474091 0 11 C-3.04296817 8.0261902 -6.0701312 5.6626368 -10 4 C-9.34 3.34 -8.68 2.68 -8 2 C-8 1.34 -8 0.68 -8 0 C-4.98381437 -1.50809281 -3.22574397 -0.86846953 0 0 Z " fill="#221715" transform="translate(142,172)"/>
<path d="M0 0 C5.42343854 2.61487215 8.7323198 6.34390816 11.3125 11.75 C12.51504561 17.43476105 11.93339889 22.09730226 9.375 27.3125 C4.85849763 32.42327899 -0.00439688 34.69036247 -6.73046875 35.16015625 C-12.11539304 34.78015299 -16.31614602 32.06887619 -19.875 28.125 C-23.34836643 23.01710819 -24.53285377 19.00831832 -23.5390625 12.953125 C-22.04697343 7.5470052 -18.43961818 4.15446555 -14 1 C-9.81634937 -1.09182531 -4.55592381 -0.42935408 0 0 Z M-9.8125 11.3125 C-12.76018101 13.36265339 -12.76018101 13.36265339 -13.375 16.8125 C-13.28853847 20.13206057 -13.28853847 20.13206057 -10.875 22.4375 C-8.08754252 24.23784957 -8.08754252 24.23784957 -4.875 24.0625 C-1.88133462 23.20577206 -1.88133462 23.20577206 0 20.8125 C1.24729228 17.98763263 1.24729228 17.98763263 0.5625 14.8125 C-0.79166667 11.79166667 -0.79166667 11.79166667 -3.8125 10.4375 C-7.02655158 9.70289613 -7.02655158 9.70289613 -9.8125 11.3125 Z " fill="#1E1412" transform="translate(177,148)"/>
<path d="M0 0 C0.66 0 1.32 0 2 0 C5.82082521 11.99055717 2.8814784 26.72973751 -2.28515625 37.73828125 C-9.45382476 50.57798557 -20.30922184 60.14707646 -34.15234375 65.21484375 C-50.79872075 69.80458556 -65.58016653 67.70991673 -81 60 C-83.25501633 60.8941261 -85.34456738 61.84160876 -87.5 62.9375 C-88.12567871 63.25162842 -88.75135742 63.56575684 -89.39599609 63.8894043 C-94.38514256 66.48608337 -98.66179945 69.60726266 -102.9140625 73.30078125 C-105 75 -105 75 -107.1484375 75.98046875 C-109.52058963 77.28665378 -109.89834542 78.56907626 -111 81 C-112.0107775 82.15283272 -113.05588619 83.27605045 -114.125 84.375 C-128.79784856 100.88195463 -133.38624326 121.66362002 -133.125 143.125 C-133.11494507 144.57291044 -133.10582368 146.02082768 -133.09765625 147.46875 C-133.07585344 150.97931037 -133.04146381 154.48961028 -133 158 C-129.54511985 159.72744007 -125.55150873 159.14404981 -121.74853516 159.1418457 C-120.78906479 159.14532013 -119.82959442 159.14879456 -118.84104919 159.15237427 C-116.75284024 159.15973823 -114.66462343 159.16508019 -112.57640457 159.16866493 C-109.2733953 159.17581517 -105.97053591 159.19147041 -102.66757202 159.21000671 C-93.27482139 159.26254802 -83.88215228 159.31047439 -74.48925781 159.32592773 C-68.74854741 159.33599316 -63.00821276 159.36528121 -57.2676506 159.40724754 C-55.0771913 159.41958308 -52.88667898 159.42467417 -50.69618607 159.42244911 C-47.63379887 159.4201037 -44.57249501 159.44220508 -41.51025391 159.4699707 C-40.60205399 159.46336929 -39.69385406 159.45676788 -38.75813293 159.44996643 C-32.62764163 159.54143597 -32.62764163 159.54143597 -29.45248413 161.86125183 C-27.81928595 164.26609712 -27.31915327 166.1276206 -27 169 C-29.0245738 167.06745228 -30.42105792 165.36841312 -32 163 C-35.1428684 162.70530431 -38.09047388 162.60444419 -41.2355957 162.63110352 C-42.19345978 162.62733704 -43.15132385 162.62357056 -44.13821411 162.61968994 C-46.22314283 162.61324234 -48.30810092 162.61360161 -50.39303017 162.61987495 C-53.69224923 162.62895156 -56.99089584 162.61879988 -60.29008484 162.60325623 C-69.67181454 162.5630641 -79.05350131 162.56195374 -88.43530273 162.56420898 C-94.16948972 162.56426005 -99.90336935 162.5451048 -105.63747215 162.51487541 C-108.88874861 162.50402978 -112.13944331 162.51619478 -115.39070129 162.52870178 C-117.38588031 162.51979779 -119.38105457 162.50972356 -121.3762207 162.49829102 C-122.28082535 162.50803452 -123.18542999 162.51777802 -124.1174469 162.52781677 C-128.246138 162.48057354 -130.45834454 162.32761935 -134.06105042 160.14852905 C-136.64526845 157.28498501 -136.64448778 155.61089627 -136.6640625 151.78515625 C-136.6741333 150.55120117 -136.6842041 149.31724609 -136.69458008 148.04589844 C-136.67161865 146.73137695 -136.64865723 145.41685547 -136.625 144.0625 C-136.61890717 143.39271118 -136.61281433 142.72292236 -136.60653687 142.03283691 C-136.44205663 126.62828534 -134.57202043 110.21519816 -126 97 C-125.34 95.96875 -124.68 94.9375 -124 93.875 C-114.10653388 78.84087573 -101.01478767 64.87248616 -84 58 C-79.77126928 58.18954823 -76.48308885 58.99012097 -72.75 60.9375 C-59.97551817 66.90181664 -46.22752292 65.80101233 -33 62 C-26.64970327 59.53335581 -17.18827084 55.37654168 -14 49 C-13.34 49 -12.68 49 -12 49 C-12 48.34 -12 47.68 -12 47 C-11.34 47 -10.68 47 -10 47 C-8.92474806 44.34771188 -7.90543849 41.71631546 -7 39 C-6.34 39 -5.68 39 -5 39 C-4.53536131 37.68971889 -4.07875419 36.37659011 -3.625 35.0625 C-3.36976563 34.33160156 -3.11453125 33.60070312 -2.8515625 32.84765625 C-0.52849445 25.07923144 0.27179447 18.05071755 0.125 9.9375 C0.11597656 8.97650391 0.10695312 8.01550781 0.09765625 7.02539062 C0.07435208 4.68332195 0.04164058 2.34180208 0 0 Z " fill="#0A0302" transform="translate(153,46)"/>
<path d="M0 0 C1.96845356 2.04416331 3.11713161 4.20986081 4.5 6.6875 C5.85099122 9.2968972 5.85099122 9.2968972 9 10 C9 10.66 9 11.32 9 12 C7.02 12.99 5.04 13.98 3 15 C3.495 16.98 3.495 16.98 4 19 C5.65 19.33 7.3 19.66 9 20 C9 20.33 9 20.66 9 21 C4.19825184 20.80401028 1.89737557 20.21932142 -1.625 16.875 C-3.28631827 15.2371635 -3.28631827 15.2371635 -5 14 C-7.85945818 13.94949548 -7.85945818 13.94949548 -10 15 C-9.7525 16.2375 -9.7525 16.2375 -9.5 17.5 C-8.41390316 25.10267789 -8.3839979 30.64620887 -13 37 C-17.21209451 41.21209451 -21.1296013 42.64058783 -27 43 C-26.67 45.64 -26.34 48.28 -26 51 C-26.99 50.67 -27.98 50.34 -29 50 C-29 47.36 -29 44.72 -29 42 C-28.41992188 41.84144531 -27.83984375 41.68289062 -27.2421875 41.51953125 C-21.23874412 39.72642357 -16.30385961 37.70654964 -12.8515625 32.15234375 C-11.85156939 29.62483824 -11.76703736 27.71122678 -11.8125 25 C-11.81894531 24.154375 -11.82539063 23.30875 -11.83203125 22.4375 C-11.90677997 20.01593099 -11.90677997 20.01593099 -12.65625 17.8515625 C-12.7696875 17.24054688 -12.883125 16.62953125 -13 16 C-10.6875 13.375 -10.6875 13.375 -8 11 C-5.95780317 9.09748923 -5.95780317 9.09748923 -4.625 6.875 C-4.08875 6.25625 -3.5525 5.6375 -3 5 C-1.68 5 -0.36 5 1 5 C0.67 4.34 0.34 3.68 0 3 C-9.95102451 3.16313155 -16.29537677 8.14520472 -24 14 C-21.00939839 7.02693896 -13.79506514 3.4612315 -7.04296875 0.6953125 C-4.48427371 -0.17552444 -2.65886972 -0.6256164 0 0 Z " fill="#170E0C" transform="translate(161,119)"/>
<path d="M0 0 C0.66 0 1.32 0 2 0 C2.2475 1.216875 2.495 2.43375 2.75 3.6875 C3.77202438 7.64959453 4.92352837 10.16640771 8 13 C14.21773709 15.85390653 19.34548728 16.42926047 26.13208008 16.37231445 C27.11354004 16.37596512 28.095 16.37961578 29.10620117 16.38337708 C32.32749101 16.39143734 35.54827084 16.37791485 38.76953125 16.36328125 C41.01535542 16.36276231 43.26118006 16.36328132 45.50700378 16.36479187 C50.20159735 16.36470236 54.8960184 16.35431281 59.59057617 16.33618164 C65.6143935 16.31342985 71.63796043 16.31296451 77.66180897 16.31969929 C82.29339331 16.32303549 86.92492029 16.31641684 91.55649376 16.30657005 C93.77850736 16.30271665 96.00052734 16.30157042 98.22254372 16.3031559 C101.32011794 16.30352565 104.41736708 16.29093379 107.51489258 16.2746582 C108.43596298 16.27713562 109.35703339 16.27961304 110.30601501 16.28216553 C111.14840729 16.27508072 111.99079956 16.26799591 112.85871887 16.26069641 C113.59037168 16.25864354 114.32202448 16.25659067 115.07584858 16.25447559 C117.32658253 16.10064848 117.32658253 16.10064848 120 14 C119.625 15.9375 119.625 15.9375 119 18 C116.72655263 19.13672368 115.46626664 19.13258672 112.94100952 19.14717102 C112.09157776 19.15432632 111.242146 19.16148163 110.36697388 19.16885376 C109.43295746 19.17154266 108.49894104 19.17423157 107.53662109 19.17700195 C106.55431519 19.18357315 105.57200928 19.19014435 104.55993652 19.19691467 C101.29776946 19.21668018 98.03564855 19.22831917 94.7734375 19.23828125 C93.65993549 19.24235678 92.54643349 19.2464323 91.399189 19.25063133 C85.50261876 19.2715086 79.60607189 19.28580164 73.70947266 19.29516602 C67.62310712 19.30621776 61.53710846 19.340599 55.45087242 19.38033772 C50.76847666 19.40651006 46.08616807 19.41485856 41.4037056 19.41844749 C39.16067662 19.42331392 36.91765156 19.43492944 34.67469406 19.45348549 C31.52941815 19.47788325 28.38508805 19.47691008 25.23974609 19.4699707 C23.85693954 19.48918579 23.85693954 19.48918579 22.44619751 19.50878906 C15.51841816 19.45326278 10.15550179 17.83815531 4.94140625 13.1484375 C4.48636719 12.56320313 4.03132812 11.97796875 3.5625 11.375 C3.08941406 10.78460938 2.61632812 10.19421875 2.12890625 9.5859375 C-0.19527739 6.32082139 -0.08604446 3.95804502 0 0 Z " fill="#0C0303" transform="translate(4,202)"/>
<path d="M0 0 C0.66 0 1.32 0 2 0 C1.625 1.9375 1.625 1.9375 1 4 C-1 5 -1 5 -4.8125 4.875 C-8.68180261 4.85385627 -11.11012725 5.20043577 -14 8 C-14.75045506 11.41456334 -14.75045506 11.41456334 -14 15 C-12.68133728 16.678298 -11.34919532 18.34614767 -10 20 C-10.05859375 22.390625 -10.05859375 22.390625 -11 25 C-17.06155494 30.72596712 -24.4744839 35.78449923 -32.9375 36.1875 C-34.4534375 36.0946875 -34.4534375 36.0946875 -36 36 C-36.26554687 35.43410156 -36.53109375 34.86820313 -36.8046875 34.28515625 C-37.15789062 33.55167969 -37.51109375 32.81820312 -37.875 32.0625 C-38.22304687 31.33160156 -38.57109375 30.60070312 -38.9296875 29.84765625 C-39.8684977 27.83667541 -39.8684977 27.83667541 -42 27 C-46.10591331 26.58344778 -46.10591331 26.58344778 -49.75 28.1875 C-51.23460833 30.34018207 -52.04252169 32.57438829 -53 35 C-56.57410293 36.78705147 -60.22008781 35.93352377 -64 35 C-70.24468825 32.09012308 -76.66631494 28.25554334 -80.0625 22.0625 C-79.96047121 18.69555002 -77.96437295 16.61916393 -76 14 C-75.34 14.66 -74.68 15.32 -74 16 C-74.515625 16.5775 -75.03125 17.155 -75.5625 17.75 C-77.22041021 19.83289161 -77.22041021 19.83289161 -76.8046875 21.953125 C-74.95797051 26.65059929 -69.68225883 29.16879542 -65.3515625 31.30859375 C-60.29412389 33.69863199 -60.29412389 33.69863199 -55 33 C-54.525625 32.05125 -54.05125 31.1025 -53.5625 30.125 C-51.96395893 26.92791786 -51.14185252 25.61580987 -48 24 C-44.22237397 23.43737485 -42.51000521 23.70533033 -39.1875 25.625 C-36.59325866 28.44160489 -36.25672062 30.2347642 -36 34 C-27.5392561 33.68072665 -19.85447864 30.13264921 -13.8125 24.125 C-13.214375 23.42375 -12.61625 22.7225 -12 22 C-12.37253906 21.50371094 -12.74507813 21.00742188 -13.12890625 20.49609375 C-15.66478131 16.85466008 -16.98689974 14.78601581 -17.0625 10.25 C-15.89806782 6.68820745 -15.02354337 5.18367021 -12 3 C-8.34497403 1.84578127 -4.81236063 1.91134045 -1 2 C-0.67 1.34 -0.34 0.68 0 0 Z " fill="#0A0302" transform="translate(216,175)"/>
<path d="M0 0 C1.98 0 3.96 0 6 0 C6 0.99 6 1.98 6 3 C5.34 3 4.68 3 4 3 C4.20625 3.598125 4.4125 4.19625 4.625 4.8125 C5 7 5 7 3 10 C2.72027344 10.67675781 2.44054687 11.35351562 2.15234375 12.05078125 C0.65269265 14.58747922 -0.73069907 15.0985571 -3.4375 16.1875 C-4.21996094 16.51105469 -5.00242188 16.83460938 -5.80859375 17.16796875 C-10.77703409 19.05438193 -10.77703409 19.05438193 -13.5625 18.375 C-16.58815053 16.66822278 -17.05358987 15.26941682 -18 12 C-17.40832031 11.80664062 -16.81664062 11.61328125 -16.20703125 11.4140625 C-14.57509537 10.8762957 -12.94627088 10.32901575 -11.3203125 9.7734375 C-9.62719036 9.20906345 -7.91194669 8.70985245 -6.1875 8.25 C-2.77344168 6.29910953 -1.73975818 3.47951635 0 0 Z " fill="#221715" transform="translate(181,121)"/>
<path d="M0 0 C2.47168943 2.47168943 2.55440914 3.97730618 3.25 7.375 C5.00515778 14.76982718 7.66906758 22.722505 13.19140625 28.15625 C15 30 15 30 15 33 C14.38253906 33.27972656 13.76507813 33.55945313 13.12890625 33.84765625 C7.42925831 36.54566312 2.64815864 39.59466714 -2.1875 43.64453125 C-4 45 -4 45 -6 45 C-6 45.66 -6 46.32 -6 47 C-7.69716246 48.19639477 -9.39617668 49.39028794 -11.10644531 50.56787109 C-14.02878918 52.77809146 -16.16011803 55.41544599 -18.375 58.3125 C-18.83688721 58.90627441 -19.29877441 59.50004883 -19.7746582 60.11181641 C-24.95123334 66.95891271 -29.01244081 74.41871462 -33 82 C-33.66 82 -34.32 82 -35 82 C-33.63832924 77.28762108 -31.61554769 73.38525711 -28.9375 69.3125 C-28.53974365 68.7038208 -28.1419873 68.0951416 -27.73217773 67.46801758 C-17.83213991 52.56630678 -6.08121378 42.27622122 9 33 C9.99 32.34 10.98 31.68 12 31 C11.54109375 30.39414063 11.0821875 29.78828125 10.609375 29.1640625 C3.7125727 19.7461602 0.44505547 11.70495878 0 0 Z " fill="#0A0302" transform="translate(47,63)"/>
<path d="M0 0 C0.99 0.33 1.98 0.66 3 1 C2.80146068 5.26859537 2.30469743 6.70207363 -0.8125 9.75 C-6.11545878 13.49326502 -9.58452596 14.3584526 -16 15 C-16.66 14.01 -17.32 13.02 -18 12 C-17 9 -17 9 -16 7 C-14.02597983 6.50649496 -12.05061553 6.01720156 -10.06640625 5.56640625 C-7.37010538 4.82734458 -5.29602699 3.57441851 -3 2 C-2.01 1.34 -1.02 0.68 0 0 Z " fill="#221715" transform="translate(183,167)"/>
<path d="M0 0 C10.01863019 7.94367433 17.67461232 16.8410761 22 29 C22 29.99 22 30.98 22 32 C21.34 32 20.68 32 20 32 C19.61908203 31.00419922 19.61908203 31.00419922 19.23046875 29.98828125 C16.35655753 22.16005438 16.35655753 22.16005438 11.5 15.5 C10 14 10 14 8.75 11.6875 C3.44800662 3.54515302 -5.41733834 -0.15427012 -14 -4 C-14.81210938 -4.37769531 -15.62421875 -4.75539063 -16.4609375 -5.14453125 C-24.84596168 -8.3661458 -34.24846532 -6.74576733 -43 -6 C-43.33 -6.66 -43.66 -7.32 -44 -8 C-29.04886957 -11.59177547 -12.60397959 -8.86111624 0 0 Z " fill="#080302" transform="translate(132,13)"/>
<path d="M0 0 C11.2672998 5.13947009 17.99081153 12.01828448 23.10546875 23.4765625 C26.48322726 33.21338751 26.17000404 43.60406816 22 53 C21.70996094 53.68707031 21.41992188 54.37414062 21.12109375 55.08203125 C18.83318443 60.0886278 15.75205076 63.99781252 12 68 C11.34 67.67 10.68 67.34 10 67 C10.79664063 66.01773438 10.79664063 66.01773438 11.609375 65.015625 C19.4245479 54.9186498 23.60382407 44.91242028 22 32 C19.56694284 20.23111117 14.61591271 12.13366547 5 5 C4.030625 4.4225 3.06125 3.845 2.0625 3.25 C1.381875 2.8375 0.70125 2.425 0 2 C0 1.34 0 0.68 0 0 Z " fill="#0B0302" transform="translate(118,21)"/>
<path d="M0 0 C2.64 1.32 5.28 2.64 8 4 C7.835 4.78375 7.67 5.5675 7.5 6.375 C6.72728806 11.97716154 5.99072235 17.55648569 8.1875 22.875 C12.95124812 28.460084 16.93992715 29.73550934 24 31 C24 34.3 24 37.6 24 41 C22.68 41 21.36 41 20 41 C20 40.34 20 39.68 20 39 C20.66 39 21.32 39 22 39 C22 37.02 22 35.04 22 33 C21.41992188 32.91363281 20.83984375 32.82726562 20.2421875 32.73828125 C14.3957119 31.68668745 11.08261959 30.37423527 7 26 C3.1310874 19.29388483 3.0943555 12.38437246 5 5 C3.68 4.34 2.36 3.68 1 3 C0.52691406 3.48210937 0.05382812 3.96421875 -0.43359375 4.4609375 C-5.35316002 9.15993842 -9.23045613 11.23215822 -16 12 C-13.73957491 9.44348088 -11.73322 8.33340256 -8.5625 7.125 C-4.57001882 5.44737761 -2.37927282 3.7240792 0 0 Z " fill="#0B0403" transform="translate(186,129)"/>
<path d="M0 0 C0 3 0 3 -1 5.0625 C-2.92699994 10.72306232 -2.53393822 17.24773169 -1 23 C-2.98 24.32 -4.96 25.64 -7 27 C-10.83132316 25.43909056 -13.1075134 22.8924866 -16 20 C-21.1536288 18.28212373 -27.19169073 17.73283606 -32.2421875 20.01171875 C-35.23780446 22.08130474 -36.83659989 23.50979966 -38 27 C-40.92879371 26.37240135 -43.36095629 25.41377341 -46 24 C-46 23.34 -46 22.68 -46 22 C-41.25 23.875 -41.25 23.875 -39 25 C-38.7421875 24.39671875 -38.484375 23.7934375 -38.21875 23.171875 C-36.10785707 19.41015554 -32.90702457 17.65397373 -29 16 C-22.59295556 14.7226462 -17.96959297 15.94641778 -12.59375 19.515625 C-10.79959577 21.186651 -9.95756327 22.75930196 -9 25 C-6.525 23.515 -6.525 23.515 -4 22 C-4.165 21.360625 -4.33 20.72125 -4.5 20.0625 C-5.59904923 13.33082348 -5.77036457 7.94557489 -2 2 C-1.34 1.34 -0.68 0.68 0 0 Z " fill="#0B0303" transform="translate(195,174)"/>
<path d="M0 0 C0.33 0.99 0.66 1.98 1 3 C0.21625 3.2475 -0.5675 3.495 -1.375 3.75 C-4.14788367 4.71445221 -4.14788367 4.71445221 -4.875 7.0625 C-5.24625 7.701875 -5.6175 8.34125 -6 9 C-9.3125 9.6875 -9.3125 9.6875 -13 10 C-15.74239143 10.21329449 -15.74239143 10.21329449 -18 11 C-19.36020151 12.96758273 -19.36020151 12.96758273 -20 15 C-21.32 14.34 -22.64 13.68 -24 13 C-18.2417421 4.93843893 -10.00923825 -0.22242752 0 0 Z " fill="#211715" transform="translate(161,121)"/>
<path d="M0 0 C1.12588014 0.95729916 2.2506715 1.91587895 3.375 2.875 C4.00148437 3.40867188 4.62796875 3.94234375 5.2734375 4.4921875 C6.55836651 5.61432007 7.79371975 6.79371975 9 8 C10.98356483 8.71408334 12.98315437 9.38617742 15 10 C15 10.33 15 10.66 15 11 C10.19825184 10.80401028 7.89737557 10.21932142 4.375 6.875 C2.71368173 5.2371635 2.71368173 5.2371635 1 4 C-1.85945818 3.94949548 -1.85945818 3.94949548 -4 5 C-3.7525 6.2375 -3.7525 6.2375 -3.5 7.5 C-2.41390316 15.10267789 -2.3839979 20.64620887 -7 27 C-11.21209451 31.21209451 -15.1296013 32.64058783 -21 33 C-20.67 35.64 -20.34 38.28 -20 41 C-20.99 40.67 -21.98 40.34 -23 40 C-23 37.36 -23 34.72 -23 32 C-22.41992188 31.84144531 -21.83984375 31.68289062 -21.2421875 31.51953125 C-15.23874412 29.72642357 -10.30385961 27.70654964 -6.8515625 22.15234375 C-5.85156939 19.62483824 -5.76703736 17.71122678 -5.8125 15 C-5.81894531 14.154375 -5.82539063 13.30875 -5.83203125 12.4375 C-5.90653903 10.01649153 -5.90653903 10.01649153 -6.65625 7.85546875 C-6.7696875 7.24316406 -6.883125 6.63085938 -7 6 C-4.8386373 3.48814606 -2.98037561 1.49018781 0 0 Z " fill="#080201" transform="translate(155,129)"/>
<path d="M0 0 C-1.09699219 0.53109375 -2.19398437 1.0621875 -3.32421875 1.609375 C-4.77880526 2.32259161 -6.2332235 3.03615148 -7.6875 3.75 C-8.40873047 4.09804687 -9.12996094 4.44609375 -9.87304688 4.8046875 C-14.00922054 6.84444438 -17.42255745 9.05308999 -21 12 C-21.66 12 -22.32 12 -23 12 C-23.66 13.32 -24.32 14.64 -25 16 C-25.66 16 -26.32 16 -27 16 C-27.33 17.32 -27.66 18.64 -28 20 C-28.66 20 -29.32 20 -30 20 C-30.2475 20.66 -30.495 21.32 -30.75 22 C-32.05517751 25.13242603 -33.54353274 28.11839936 -35.09765625 31.1328125 C-36.12002876 33.14664322 -36.12002876 33.14664322 -37 36 C-37.66 36 -38.32 36 -39 36 C-34.67384621 20.47674229 -25.59838011 10.89624907 -12.18359375 2.69921875 C-4.38679245 -1.46226415 -4.38679245 -1.46226415 0 0 Z " fill="#090302" transform="translate(88,7)"/>
<path d="M0 0 C0.66 0.33 1.32 0.66 2 1 C1.9175 1.928125 1.835 2.85625 1.75 3.8125 C1.69051806 7.01187721 1.69051806 7.01187721 3.625 8.9375 C6.76127543 10.34057059 8.72450019 9.81887495 12 9 C13.47047336 5.08936776 13.47047336 5.08936776 14 1 C14.66 1 15.32 1 16 1 C16.33593482 4.61129927 16.24978804 6.56037306 14.4375 9.75 C11.46204674 12.49657224 8.85416337 12.92939906 5 14 C3.37968479 15.82029908 3.37968479 15.82029908 3 18 C3.33 18.99 3.66 19.98 4 21 C-0.95696581 19.76075855 -3.11658466 18.21422242 -6 14 C-3.50638429 15.20381448 -1.31856917 16.45428722 1 18 C0.67 17.01 0.34 16.02 0 15 C0.33 14.34 0.66 13.68 1 13 C1.66 13 2.32 13 3 13 C2.319375 11.96875 1.63875 10.9375 0.9375 9.875 C-0.77423963 6.92600295 -1.00995139 6.13683163 -0.75 2.5625 C-0.5025 1.716875 -0.255 0.87125 0 0 Z " fill="#0E0706" transform="translate(163,161)"/>
<path d="M0 0 C2.92096779 1.4604839 2.98184656 3.3969518 4.0625 6.4375 C8.89651756 18.25554874 16.50117866 24.07431098 28 29 C29.33817983 29.65688429 30.67366967 30.31950748 32 31 C29.11879885 32.19819182 28.08443695 32.03361417 25.125 30.85546875 C24.09375 30.30503906 23.0625 29.75460938 22 29.1875 C20.96875 28.64480469 19.9375 28.10210937 18.875 27.54296875 C17.92625 27.03378906 16.9775 26.52460937 16 26 C15.31035156 25.71898438 14.62070313 25.43796875 13.91015625 25.1484375 C7.33881217 21.19756805 2.38305449 12.01111281 0.33984375 4.83984375 C0 3 0 3 0 0 Z " fill="#0B0303" transform="translate(61,67)"/>
<path d="M0 0 C0 3 0 3 -1 5 C-0.34 5 0.32 5 1 5 C0.34 6.65 -0.32 8.3 -1 10 C-1.66 10 -2.32 10 -3 10 C-3 10.66 -3 11.32 -3 12 C-5.31 11.67 -7.62 11.34 -10 11 C-9.8125 7.6875 -9.8125 7.6875 -9 4 C-6.19849782 1.72851175 -3.53007461 0.65371752 0 0 Z " fill="#231715" transform="translate(166,151)"/>
<path d="M0 0 C0.66 0 1.32 0 2 0 C2.38543664 4.817958 2.41939551 8.14623056 0.25 12.5625 C-0.4925 13.366875 -1.235 14.17125 -2 15 C-5.11257569 15 -7.10765685 14.82638376 -10 14 C-9.2575 13.319375 -8.515 12.63875 -7.75 11.9375 C-4.25110419 8.45848428 -2.19732356 4.39464712 0 0 Z " fill="#211715" transform="translate(148,140)"/>
<path d="M0 0 C5.50301553 2.65323963 8.87278081 6.42349899 11.3125 12 C12.0278801 15.12165861 11.89479479 16.95769772 11 20 C10.67 20 10.34 20 10 20 C9.90203125 19.33613281 9.8040625 18.67226562 9.703125 17.98828125 C8.80520244 12.68589374 8.11353636 8.77074166 4 5 C-0.43869792 2.13950579 -3.7546559 1.36694123 -9 2 C-11.15919256 2.92024628 -13.1697548 3.95377876 -15.203125 5.125 C-17 6 -17 6 -20 6 C-13.18529472 0.22231509 -9.14782496 -0.86209869 0 0 Z " fill="#080302" transform="translate(177,148)"/>
<path d="M0 0 C0.66 0 1.32 0 2 0 C1.81824219 0.63164062 1.63648438 1.26328125 1.44921875 1.9140625 C-1.16013499 11.20068557 -3.68017237 20.6217932 -4.5625 30.25 C-5 34 -5 34 -7 36 C-7.53197195 29.15824959 -6.76291671 22.94541204 -5.1875 16.3125 C-5.02217773 15.61261963 -4.85685547 14.91273926 -4.68652344 14.19165039 C-3.46781607 9.30706667 -1.83581373 4.68684824 0 0 Z " fill="#0B0403" transform="translate(11,146)"/>
<path d="M0 0 C0.66 0 1.32 0 2 0 C1.17819365 7.23189585 1.17819365 7.23189585 -2 10 C-7.51825123 11.17602075 -12.78878616 11.60560692 -18 9 C-17.34 8.34 -16.68 7.68 -16 7 C-12.9123526 7.18659164 -9.9067397 7.64808962 -6.84765625 8.1015625 C-3.90335322 8.32038908 -3.90335322 8.32038908 -2.1640625 6.1640625 C-1.04549422 4.08457649 -0.41371666 2.31681331 0 0 Z " fill="#0B0403" transform="translate(143,143)"/>
<path d="M0 0 C0.66 0.33 1.32 0.66 2 1 C0.16087306 6.85176754 -3.055971 9.97496653 -8.4375 12.8125 C-11.89673032 13.96557677 -14.39012376 14.26413729 -18 14 C-17.67 13.34 -17.34 12.68 -17 12 C-15.04497256 11.53609518 -13.0897197 11.07309778 -11.1328125 10.6171875 C-6.33660127 9.2292729 -3.59400571 7.02960989 -1.125 2.75 C-0.75375 1.8425 -0.3825 0.935 0 0 Z " fill="#090202" transform="translate(186,169)"/>
<path d="M0 0 C2.86095641 1.2824977 5.11365918 2.45343989 7 5 C7.1875 7.6875 7.1875 7.6875 7 10 C6.01 10.495 6.01 10.495 5 11 C4.62875 9.3603125 4.62875 9.3603125 4.25 7.6875 C2.97997149 3.94091591 2.34243648 2.89404734 -1 1 C-0.67 0.67 -0.34 0.34 0 0 Z " fill="#090303" transform="translate(136,178)"/>
<path d="M0 0 C0.66 0 1.32 0 2 0 C4 6.625 4 6.625 4 10 C2 8.375 2 8.375 0 6 C-0.25 2.75 -0.25 2.75 0 0 Z " fill="#0A0302" transform="translate(199,141)"/>
<path d="M0 0 C0.66 0.33 1.32 0.66 2 1 C1.95875 1.928125 1.9175 2.85625 1.875 3.8125 C1.72863661 7.15809719 1.72863661 7.15809719 4 10 C3.01 10 2.02 10 1 10 C-0.80411967 7.24075815 -1.0127245 6.11027897 -0.625 2.75 C-0.41875 1.8425 -0.2125 0.935 0 0 Z " fill="#0C0404" transform="translate(163,161)"/>
</svg>
