<?xml version="1.0" encoding="UTF-8"?>
<svg version="1.1" xmlns="http://www.w3.org/2000/svg" width="200" height="200">
<path d="M0 0 C5.44540692 -0.30544836 8.35628107 1.18033087 12.70703125 4.19921875 C13.20203125 5.18921875 13.20203125 5.18921875 13.70703125 6.19921875 C14.795 6.16441406 15.88296875 6.12960938 17.00390625 6.09375 C29.89055165 5.8038483 40.16529015 7.79272275 52.015625 13.11328125 C59.26143917 16.03684633 66.88088257 15.57007446 74.51953125 14.69921875 C78.52223176 14.26854844 82.49399595 14.03988396 86.51953125 13.94921875 C87.57785156 13.9234375 88.63617188 13.89765625 89.7265625 13.87109375 C93.14281679 14.24719514 94.95530458 15.17645827 97.70703125 17.19921875 C100.24509822 20.61248123 100.70703125 21.83834219 100.70703125 26.19921875 C103.77264907 24.99710377 106.83805397 23.79445343 109.90307617 22.59082031 C112.48664486 21.57657765 115.07157235 20.56590434 117.6574707 19.55761719 C125.66706232 16.43404198 125.66706232 16.43404198 133.58984375 13.09765625 C145.89385852 7.72819384 145.89385852 7.72819384 152.70703125 10.19921875 C156.29855625 11.99498125 158.2197554 13.53327508 160.58203125 16.76171875 C162.44987754 22.46902685 162.79289799 28.42422598 160.58203125 34.07421875 C155.15837899 40.22102464 148.81361534 43.37287703 141.51953125 46.88671875 C139.34166707 47.95544149 137.16459093 49.02577152 134.98828125 50.09765625 C133.91578125 50.62456055 132.84328125 51.15146484 131.73828125 51.69433594 C127.62944493 53.73419315 123.57017984 55.85920454 119.51953125 58.01171875 C118.78629639 58.39811523 118.05306152 58.78451172 117.29760742 59.18261719 C112.99952757 61.44813197 108.71256144 63.7330686 104.43382263 66.03492737 C101.87616299 67.40618721 99.31153133 68.76407395 96.74569702 70.1199646 C95.4921146 70.78600835 94.24135187 71.45739288 92.99380493 72.13467407 C79.00720048 79.7211799 66.42288538 83.28400546 50.83203125 79.19140625 C47.73915497 78.20941803 44.90377822 76.98998027 41.95703125 75.63671875 C34.77373118 72.46536819 27.449875 71.85755699 19.70703125 71.19921875 C19.57167969 71.81539063 19.43632813 72.4315625 19.296875 73.06640625 C18.42486831 76.21949005 17.36662918 77.25317148 14.70703125 79.19921875 C8.50998552 81.40406239 1.71624353 81.49286564 -4.79296875 81.88671875 C-5.99590576 81.95959106 -5.99590576 81.95959106 -7.22314453 82.03393555 C-13.04134291 82.32503167 -13.04134291 82.32503167 -15.29296875 81.19921875 C-15.29296875 79.21921875 -15.29296875 77.23921875 -15.29296875 75.19921875 C-12.33382805 73.52452861 -10.01512887 72.90173453 -6.6328125 72.671875 C-5.75689453 72.60162109 -4.88097656 72.53136719 -3.97851562 72.45898438 C-2.14287239 72.32721468 -0.30692434 72.19962624 1.52929688 72.07617188 C2.40392578 72.00462891 3.27855469 71.93308594 4.1796875 71.859375 C4.97640869 71.80402588 5.77312988 71.74867676 6.59399414 71.69165039 C9.21018543 71.08196144 10.04800798 70.28877031 11.70703125 68.19921875 C12.00339716 66.25683002 12.00339716 66.25683002 11.7121582 64.13354492 C11.63830399 63.31806686 11.56444977 62.50258881 11.48835754 61.66239929 C11.34330025 60.34064445 11.34330025 60.34064445 11.1953125 58.9921875 C11.10702682 58.07520584 11.01874115 57.15822418 10.92778015 56.2134552 C10.64018289 53.26947955 10.32980078 50.32838201 10.01953125 47.38671875 C9.82865962 45.44740471 9.63919111 43.50795203 9.45117188 41.56835938 C9.22296303 24.83860111 9.22296303 24.83860111 4.70703125 10.19921875 C-3.00532005 9.73998943 -10.68916813 10.40619528 -18.359375 11.17578125 C-21.29296875 11.19921875 -21.29296875 11.19921875 -24.29296875 9.19921875 C-24.48046875 6.07421875 -24.48046875 6.07421875 -24.29296875 3.19921875 C-16.19967938 1.35495148 -8.24319935 0.71618938 0 0 Z M15.70703125 16.19921875 C16.25381631 22.26857096 16.80527268 28.33747358 17.36108398 34.40600586 C17.54954792 36.47099275 17.73672935 38.5360971 17.92260742 40.60131836 C18.18983162 43.56786321 18.46164821 46.53395661 18.734375 49.5 C18.81670883 50.42508865 18.89904266 51.35017731 18.98387146 52.30329895 C19.06387894 53.16396469 19.14388641 54.02463043 19.22631836 54.91137695 C19.29515732 55.6686055 19.36399628 56.42583405 19.43492126 57.20600891 C19.67229575 59.40334387 19.67229575 59.40334387 20.70703125 62.19921875 C22.01800781 62.29396484 22.01800781 62.29396484 23.35546875 62.390625 C33.65028489 63.41579013 42.364049 66.38456678 51.83862305 70.47485352 C55.84740896 72.02902414 59.53841309 72.41343111 63.83203125 72.51171875 C64.88648438 72.54910156 65.9409375 72.58648437 67.02734375 72.625 C75.62998069 71.6295781 83.50905518 66.94743614 91.14453125 63.07421875 C92.10480225 62.59049805 93.06507324 62.10677734 94.05444336 61.60839844 C100.73758176 58.22958728 107.38407591 54.78466264 113.99389648 51.26464844 C118.39010556 48.92745816 122.8050117 46.63313145 127.24717712 44.38476562 C129.90696877 43.03845966 132.56325197 41.68529392 135.21969604 40.33239746 C136.53606668 39.66460028 137.85418871 39.00024343 139.17410278 38.33947754 C141.03342313 37.40826889 142.88624909 36.46513301 144.73828125 35.51953125 C145.81658203 34.97570801 146.89488281 34.43188477 148.00585938 33.87158203 C150.72208404 32.18989919 152.16361666 30.97830777 153.70703125 28.19921875 C153.58593881 24.74808423 153.3391626 22.23059096 151.51953125 19.26171875 C148.78697588 17.65987595 146.86090974 17.95507679 143.70703125 18.19921875 C140.91251926 19.03990401 138.27137213 20.17628978 135.59765625 21.33984375 C134.83080505 21.66329773 134.06395386 21.98675171 133.27386475 22.32000732 C130.83053546 23.3530862 128.3937682 24.40069808 125.95703125 25.44921875 C124.33506227 26.13902537 122.71266982 26.82783717 121.08984375 27.515625 C118.73474438 28.51392352 116.38023151 29.5134177 114.02819824 30.5189209 C109.29955083 32.53892312 104.55216586 34.4861414 99.74121094 36.30371094 C97.60256951 37.16827685 97.60256951 37.16827685 95.50341797 38.72607422 C91.66697617 40.74712275 88.06905952 41.04694799 83.79296875 41.47265625 C82.94151276 41.56431061 82.09005676 41.65596497 81.21279907 41.75039673 C79.41985203 41.93955964 77.62622907 42.12241005 75.83203125 42.29931641 C73.08195614 42.57422626 70.33640382 42.87965353 67.58984375 43.1875 C65.84524254 43.36773856 64.10045518 43.54618626 62.35546875 43.72265625 C61.53356049 43.81622406 60.71165222 43.90979187 59.86483765 44.00619507 C54.17023757 44.53231559 54.17023757 44.53231559 51.96694946 42.94790649 C50.70703125 41.19921875 50.70703125 41.19921875 50.70703125 37.19921875 C51.8372168 37.09375732 52.96740234 36.9882959 54.13183594 36.87963867 C58.33009222 36.48444449 62.52654061 36.07229116 66.72265625 35.6550293 C68.53796363 35.47690226 70.353727 35.30335961 72.16992188 35.13452148 C74.78258952 34.89083449 77.39316595 34.63063094 80.00390625 34.3671875 C81.21974396 34.25917061 81.21974396 34.25917061 82.46014404 34.14897156 C88.16121175 33.55477992 88.16121175 33.55477992 92.70703125 30.19921875 C93.37369792 27.69921875 93.37369792 27.69921875 92.70703125 25.19921875 C90.51334604 23.02579854 89.33055446 22.21775856 86.2109375 22.125 C85.24027344 22.25261719 84.26960938 22.38023437 83.26953125 22.51171875 C56.10079669 25.21324264 56.10079669 25.21324264 43.70703125 19.19921875 C35.85380006 15.66645822 24.00957897 12.04794489 15.70703125 16.19921875 Z " fill="#010101" transform="translate(31.29296875,109.80078125)"/>
<path d="M0 0 C1.15918945 -0.00507568 1.15918945 -0.00507568 2.34179688 -0.01025391 C3.60443359 -0.01605469 3.60443359 -0.01605469 4.89257812 -0.02197266 C5.77300781 -0.01037109 6.6534375 0.00123047 7.56054688 0.01318359 C8.44097656 0.00158203 9.32140625 -0.01001953 10.22851562 -0.02197266 C11.07027344 -0.01810547 11.91203125 -0.01423828 12.77929688 -0.01025391 C13.55208984 -0.00687012 14.32488281 -0.00348633 15.12109375 0 C17.06054688 0.38818359 17.06054688 0.38818359 19.06054688 3.38818359 C19.47460938 5.86865234 19.47460938 5.86865234 19.68554688 8.57568359 C19.79769531 9.92726563 19.79769531 9.92726563 19.91210938 11.30615234 C19.96109375 11.99322266 20.01007813 12.68029297 20.06054688 13.38818359 C25.64859918 15.47446066 25.64859918 15.47446066 31.26367188 14.37255859 C33.31244331 12.98913649 33.31244331 12.98913649 35.13867188 11.45458984 C37.06054688 10.38818359 37.06054688 10.38818359 39.46679688 10.43115234 C42.88932827 11.69398396 44.75289341 13.54989955 47.31054688 16.13818359 C48.18195313 16.99927734 49.05335938 17.86037109 49.95117188 18.74755859 C52.13942005 21.48692112 52.99218475 22.90171545 53.06054688 26.38818359 C52.02929688 28.23193359 52.02929688 28.23193359 50.56054688 29.88818359 C48.349776 32.6081247 48.349776 32.6081247 48.12304688 36.07568359 C48.58710938 37.22037109 48.58710938 37.22037109 49.06054688 38.38818359 C49.29515625 39.06236328 49.52976562 39.73654297 49.77148438 40.43115234 C51.6151216 43.23012886 53.40608511 43.31694415 56.62304688 44.01318359 C58.44852534 44.4167354 60.26600269 44.86393473 62.06054688 45.38818359 C63.69675233 48.6605945 63.32854435 52.23284622 63.37304688 55.82568359 C63.41655273 56.99067383 63.41655273 56.99067383 63.4609375 58.17919922 C63.5245153 63.85718587 63.5245153 63.85718587 61.33007812 66.36865234 C58.9758139 67.4262478 56.98705765 67.91331088 54.43554688 68.26318359 C50.7903356 68.90443287 50.7903356 68.90443287 48.43554688 71.70068359 C47.79156978 76.31585276 48.47069726 78.55545472 51.18554688 82.38818359 C53.06054688 85.38818359 53.06054688 85.38818359 52.97851562 87.74755859 C51.76209592 91.24670635 49.88741353 93.05678254 47.24804688 95.63818359 C46.37535156 96.50958984 45.50265625 97.38099609 44.60351562 98.27880859 C40.93982546 101.31781426 40.93982546 101.31781426 38.06054688 101.38818359 C36.13085937 100.35693359 36.13085937 100.35693359 34.18554688 98.88818359 C30.83589872 96.62977202 30.83589872 96.62977202 26.74804688 96.51318359 C24.84991861 97.13117884 22.95430719 97.75693016 21.06054688 98.38818359 C20.10292087 100.8842092 20.10292087 100.8842092 19.49804688 103.82568359 C18.26054687 109.18818359 18.26054687 109.18818359 16.06054688 111.38818359 C13.20489329 111.61370701 10.47801177 111.71247123 7.62304688 111.70068359 C6.45805664 111.72485352 6.45805664 111.72485352 5.26953125 111.74951172 C-0.48251243 111.75446611 -0.48251243 111.75446611 -2.65112305 110.01611328 C-4.37523719 107.83752827 -4.48382539 106.06344253 -4.81445312 103.32568359 C-5.38461489 99.34148616 -5.38461489 99.34148616 -8.25195312 96.70068359 C-12.88245601 96.16225303 -15.58313731 97.11331743 -19.43945312 99.57568359 C-22.93945312 101.38818359 -22.93945312 101.38818359 -25.36132812 100.77099609 C-28.29545118 99.19723918 -30.33449102 97.42669442 -32.68945312 95.07568359 C-33.46804687 94.31642578 -34.24664062 93.55716797 -35.04882812 92.77490234 C-37.12190969 90.15785103 -37.83848141 88.71493593 -37.93945312 85.38818359 C-36.87304688 83.43115234 -36.87304688 83.43115234 -35.37695312 81.57568359 C-33.31534428 78.60742281 -33.31534428 78.60742281 -33.04882812 75.09521484 C-33.65130552 72.64155491 -33.65130552 72.64155491 -34.93945312 69.38818359 C-35.7103125 69.19482422 -36.48117188 69.00146484 -37.27539062 68.80224609 C-38.27828125 68.54185547 -39.28117187 68.28146484 -40.31445312 68.01318359 C-41.81105469 67.63033203 -41.81105469 67.63033203 -43.33789062 67.23974609 C-45.93945312 66.38818359 -45.93945312 66.38818359 -47.93945312 64.38818359 C-48.16497654 61.53253001 -48.26374076 58.80564849 -48.25195312 55.95068359 C-48.27612305 54.78569336 -48.27612305 54.78569336 -48.30078125 53.59716797 C-48.30573963 47.84048461 -48.30573963 47.84048461 -46.55151367 45.67431641 C-44.51157101 44.04681104 -43.01041107 43.89705334 -40.43945312 43.57568359 C-36.7090476 42.85268969 -36.19798658 42.73796416 -33.81445312 39.51318359 C-32.74115504 35.81904104 -32.74115504 35.81904104 -33.93945312 32.38818359 C-34.64070313 31.41880859 -35.34195313 30.44943359 -36.06445312 29.45068359 C-37.93945312 26.38818359 -37.93945312 26.38818359 -37.88085938 24.06396484 C-36.6131054 20.46059774 -34.40411602 18.15486363 -31.75195312 15.51318359 C-31.0471582 14.74748047 -31.0471582 14.74748047 -30.328125 13.96630859 C-28.89648438 12.52099609 -28.89648438 12.52099609 -25.93945312 10.38818359 C-21.86545806 10.44310264 -20.35846245 11.06228745 -17.12695312 13.57568359 C-13.54183392 15.61428079 -12.89864833 15.50822789 -9.06445312 14.63818359 C-7.68230199 14.24588987 -6.30427792 13.8370593 -4.93945312 13.38818359 C-4.89046875 12.70111328 -4.84148437 12.01404297 -4.79101562 11.30615234 C-4.71625 10.40509766 -4.64148438 9.50404297 -4.56445312 8.57568359 C-4.49484375 7.68236328 -4.42523438 6.78904297 -4.35351562 5.86865234 C-3.84578749 2.82707342 -3.26883511 0.6542608 0 0 Z M4.06054688 8.38818359 C3.92712891 9.49226563 3.92712891 9.49226563 3.79101562 10.61865234 C2.35174286 18.45699397 2.35174286 18.45699397 -1.44726562 21.19677734 C-4.25367826 22.45779209 -6.99262767 23.50712983 -9.93945312 24.38818359 C-10.60589844 24.64212891 -11.27234375 24.89607422 -11.95898438 25.15771484 C-14.90094875 25.50007362 -16.61827721 24.33776534 -19.18945312 22.95068359 C-20.08148438 22.47759766 -20.97351563 22.00451172 -21.89257812 21.51708984 C-22.56804687 21.14455078 -23.24351563 20.77201172 -23.93945312 20.38818359 C-25.25945312 22.03818359 -26.57945313 23.68818359 -27.93945312 25.38818359 C-27.56691406 25.90767578 -27.194375 26.42716797 -26.81054688 26.96240234 C-26.33746094 27.65978516 -25.864375 28.35716797 -25.37695312 29.07568359 C-24.90128906 29.76017578 -24.425625 30.44466797 -23.93554688 31.14990234 C-22.30388861 34.81633445 -23.66560933 37.47876747 -24.77929688 41.17724609 C-27.69800386 48.71810471 -27.69800386 48.71810471 -31.49414062 50.76708984 C-33.98130052 51.49632794 -36.37229751 52.04423459 -38.93945312 52.38818359 C-38.93945312 54.69818359 -38.93945312 57.00818359 -38.93945312 59.38818359 C-35.30945313 60.04818359 -31.67945312 60.70818359 -27.93945312 61.38818359 C-26.86523438 65.09912109 -26.86523438 65.09912109 -25.79101562 68.81005859 C-25.0182961 71.37172485 -25.0182961 71.37172485 -23.82617188 73.56005859 C-22.55202099 76.18694237 -23.05125462 77.65526513 -23.93945312 80.38818359 C-24.47570312 81.06880859 -25.01195312 81.74943359 -25.56445312 82.45068359 C-27.15615581 84.28133472 -27.15615581 84.28133472 -26.87695312 86.51318359 C-25.66931761 88.92845462 -24.41073515 89.43155829 -21.93945312 90.38818359 C-20.60914063 89.39818359 -20.60914063 89.39818359 -19.25195312 88.38818359 C-14.7403581 85.66420169 -14.7403581 85.66420169 -10.93945312 86.38818359 C-8.87138254 87.31239149 -6.88697124 88.32014883 -4.90429688 89.41552734 C-2.67808938 90.60442756 -2.67808938 90.60442756 1.06054688 91.38818359 C2.05054688 95.01818359 3.04054687 98.64818359 4.06054688 102.38818359 C6.37054688 102.38818359 8.68054688 102.38818359 11.06054688 102.38818359 C11.19396484 101.26669922 11.19396484 101.26669922 11.33007812 100.12255859 C11.91853432 96.88816628 12.55258573 94.31962626 14.06054688 91.38818359 C17.56299172 89.26263411 21.10704955 88.3540217 25.06054688 87.38818359 C25.39054687 87.05818359 25.72054687 86.72818359 26.06054688 86.38818359 C30.84313904 85.70495614 33.30117188 87.59050918 37.06054688 90.38818359 C39.44746126 89.46421674 40.77077731 88.89528033 42.06054688 86.63818359 C42.27159349 84.1058721 42.27159349 84.1058721 40.06054688 81.45068359 C38.06054688 78.38818359 38.06054688 78.38818359 38.30664062 76.02099609 C39.08093152 73.31699577 40.02953527 70.79140462 41.12304688 68.20068359 C42.60102148 64.89796587 42.60102148 64.89796587 43.06054688 61.38818359 C46.69054687 60.72818359 50.32054687 60.06818359 54.06054688 59.38818359 C54.06054688 57.07818359 54.06054688 54.76818359 54.06054688 52.38818359 C53.40828125 52.32244141 52.75601563 52.25669922 52.08398438 52.18896484 C47.37978196 51.32167089 44.83291408 50.49558917 42.02539062 46.47021484 C37.31862899 36.62273482 37.31862899 36.62273482 39.06054688 31.38818359 C40.24037187 28.9385068 41.64481245 26.71729507 43.06054688 24.38818359 C41.41054687 23.06818359 39.76054687 21.74818359 38.06054688 20.38818359 C37.57328125 20.80712891 37.08601563 21.22607422 36.58398438 21.65771484 C34.04157651 23.48362595 32.09863908 24.56477543 29.06054688 25.38818359 C24.03126512 24.45563724 19.59574684 22.79732036 15.06054688 20.38818359 C13.15735804 17.53340034 12.59863697 15.96877051 11.93554688 12.70068359 C11.68417969 11.48832031 11.68417969 11.48832031 11.42773438 10.25146484 C11.3065625 9.63658203 11.18539062 9.02169922 11.06054688 8.38818359 C8.75054687 8.38818359 6.44054687 8.38818359 4.06054688 8.38818359 Z " fill="#010101" transform="translate(122.939453125,7.61181640625)"/>
<path d="M0 0 C5.82372383 3.34272278 9.03410915 7.87374598 11.9375 13.8125 C13.52725225 21.92023649 13.22665437 28.48724087 9.109375 35.7734375 C4.98508455 41.70991617 -0.37570481 45.40582609 -7.4375 47 C-14.32677035 48.01092554 -20.45598014 46.52959106 -26.4375 43 C-31.84971336 38.31889239 -35.940467 32.66230956 -36.71484375 25.3984375 C-36.98903127 17.43603196 -35.62716697 10.41796275 -30.05859375 4.38671875 C-21.44467364 -2.98181532 -10.40051476 -4.59812232 0 0 Z M-24.8125 12.1875 C-27.02591673 16.01841357 -28.19381419 19.56796439 -28.4375 24 C-26.79111901 29.81075643 -23.80515435 34.01698039 -18.546875 37.11328125 C-14.35151323 38.87688703 -9.72713274 38.78706125 -5.4375 37.3125 C-1.08353265 35.06044792 1.36232733 32.31572332 3.5625 28 C4.93966954 23.04218965 4.61646849 19.5055833 2.64453125 14.859375 C-0.01911489 10.2821347 -4.37588804 7.42763414 -9.4375 6 C-15.36324049 5.03906911 -20.58830781 8.29679667 -24.8125 12.1875 Z " fill="#010101" transform="translate(142.4375,41)"/>
<path d="M0 0 C1.875 0.6875 1.875 0.6875 2.875 1.6875 C3 4.6875 3 4.6875 2.875 7.6875 C1.875 8.6875 1.875 8.6875 -1.125 8.8125 C-4.125 8.6875 -4.125 8.6875 -5.125 7.6875 C-5.375 4.75 -5.375 4.75 -5.125 1.6875 C-2.125 -0.3125 -2.125 -0.3125 0 0 Z " fill="#010101" transform="translate(28.125,161.3125)"/>
</svg>
