<?xml version="1.0" encoding="UTF-8"?>
<svg version="1.1" xmlns="http://www.w3.org/2000/svg" width="198" height="254">
<path d="M0 0 C13.88743983 2.73226428 29.26955656 7.68364887 38.296875 19.3125 C43.92465256 28.24395585 43.58180354 38.27469694 43.2265625 48.453125 C43.21238281 49.26910156 43.19820313 50.08507812 43.18359375 50.92578125 C43.16151855 51.66151367 43.13944336 52.39724609 43.11669922 53.15527344 C43.5329765 55.68548814 44.56382865 56.4521359 46.44140625 58.12890625 C48.04775145 62.14476925 47.03670464 64.84026342 45.50683594 68.75463867 C43.4071384 73.43373092 40.75567303 77.79358445 38.12890625 82.19140625 C37.57267578 83.14595703 37.01644531 84.10050781 36.44335938 85.08398438 C33.18386104 90.58225339 29.76196417 95.41616456 25.44140625 100.12890625 C26.82557606 104.16606819 28.49069656 107.03188038 31.44140625 110.12890625 C34.71035437 111.64075388 34.71035437 111.64075388 38.50390625 112.62890625 C39.19492432 112.83265869 39.88594238 113.03641113 40.59790039 113.24633789 C44.50896584 114.38037722 48.44503039 115.38493979 52.40234375 116.34375 C71.96719896 121.11062712 71.96719896 121.11062712 78.81640625 130.25390625 C84.93174156 140.76873061 84.92080455 152.18392181 84.83251953 163.99487305 C84.81628161 166.58629759 84.83252438 169.17619764 84.8515625 171.76757812 C84.8495825 173.42838883 84.84574387 175.08919859 84.83984375 176.75 C84.84591644 177.51775253 84.85198914 178.28550507 84.85824585 179.07652283 C84.79907531 183.59216746 84.25357462 186.54568714 81.44140625 190.12890625 C78.91665163 191.39128356 77.12940159 191.22747029 74.31640625 191.19140625 C73.40632812 191.18238281 72.49625 191.17335937 71.55859375 191.1640625 C70.85992187 191.15246094 70.16125 191.14085937 69.44140625 191.12890625 C69.32788211 185.40080241 69.72495755 179.98212727 70.53515625 174.31640625 C70.64613647 173.50324951 70.7571167 172.69009277 70.87145996 171.85229492 C71.34145386 168.40985808 71.82386745 164.96919034 72.30517578 161.52832031 C72.65700651 158.99992585 73.00245463 156.47071293 73.34765625 153.94140625 C73.51170959 152.79418091 73.51170959 152.79418091 73.67907715 151.6237793 C73.77918091 150.8894165 73.87928467 150.15505371 73.98242188 149.3984375 C74.07124634 148.76526611 74.1600708 148.13209473 74.25158691 147.47973633 C74.5293247 144.04007436 74.44140625 140.57976306 74.44140625 137.12890625 C49.69140625 136.63390625 49.69140625 136.63390625 24.44140625 136.12890625 C24.77140625 132.16890625 25.10140625 128.20890625 25.44140625 124.12890625 C26.17245391 116.01696273 26.17245391 116.01696273 22.94140625 108.94140625 C22.11640625 108.01328125 21.29140625 107.08515625 20.44140625 106.12890625 C17.57808941 106.64950931 14.90618219 107.30058189 12.12890625 108.19140625 C4.44120717 110.14590602 -0.3542996 109.17044915 -7.45703125 106.00390625 C-9.48691283 105.00078235 -9.48691283 105.00078235 -11.55859375 105.12890625 C-16.59345887 112.4315412 -15.43707212 118.97094028 -14.13671875 127.23828125 C-13.67867087 130.32081967 -13.50910076 133.03760101 -13.55859375 136.12890625 C-14.16802826 136.1369931 -14.77746277 136.14507996 -15.40536499 136.15341187 C-21.73172359 136.2392747 -28.05776221 136.33876952 -34.38378906 136.44628906 C-36.74669026 136.48464152 -39.10965109 136.51948317 -41.47265625 136.55078125 C-44.86349855 136.59629591 -48.25392799 136.65431244 -51.64453125 136.71484375 C-53.23677017 136.73217056 -53.23677017 136.73217056 -54.86117554 136.74984741 C-56.33247421 136.77965195 -56.33247421 136.77965195 -57.83349609 136.81005859 C-59.13255386 136.8300441 -59.13255386 136.8300441 -60.45785522 136.85043335 C-62.77617017 136.94111338 -62.77617017 136.94111338 -64.55859375 139.12890625 C-64.67552201 141.3312991 -64.67552201 141.3312991 -64.34375 143.95703125 C-64.23434082 145.03533203 -64.12493164 146.11363281 -64.01220703 147.22460938 C-63.05663981 155.44927622 -62.04208632 163.66528053 -60.99609375 171.87890625 C-60.75953478 173.75127293 -60.52320487 175.62366857 -60.28710938 177.49609375 C-59.71357656 182.04070256 -59.13694966 186.58490883 -58.55859375 191.12890625 C-60.33696621 191.1778781 -62.11572384 191.21301494 -63.89453125 191.2421875 C-64.88501465 191.26321533 -65.87549805 191.28424316 -66.89599609 191.3059082 C-69.55859375 191.12890625 -69.55859375 191.12890625 -72.18359375 189.31640625 C-76.1273072 183.04231667 -75.27759207 174.34403753 -75.55859375 167.12890625 C-75.59404297 166.2565332 -75.62949219 165.38416016 -75.66601562 164.48535156 C-76.17481062 150.17159848 -76.21083758 137.38206965 -66.14453125 126.12890625 C-57.88794006 119.74314388 -48.12827996 117.38488076 -38.18359375 114.87890625 C-36.8174429 114.52576486 -35.45155516 114.17160396 -34.0859375 113.81640625 C-29.2497223 112.56250972 -24.40650414 111.33678303 -19.55859375 110.12890625 C-17.72806923 106.46050571 -16.69711548 103.24498047 -16.55859375 99.12890625 C-18.53470836 94.96419158 -21.30119551 91.55224376 -24.15771484 87.97216797 C-26.69339129 84.63575159 -28.85903372 81.06695981 -31.05859375 77.50390625 C-31.49131592 76.81659424 -31.92403809 76.12928223 -32.36987305 75.42114258 C-35.08990592 71.05940086 -36.70569997 67.77359508 -36.80859375 62.62890625 C-36.834375 61.85546875 -36.86015625 61.08203125 -36.88671875 60.28515625 C-36.47974425 57.61075239 -35.69006285 56.74302848 -33.55859375 55.12890625 C-32.89859375 55.12890625 -32.23859375 55.12890625 -31.55859375 55.12890625 C-31.72359375 53.89140625 -31.88859375 52.65390625 -32.05859375 51.37890625 C-33.35771547 39.38556517 -33.74947451 27.34532254 -26.38671875 17.23046875 C-21.42748575 11.52947014 -15.65779568 7.7575729 -8.6015625 5.1484375 C-6.38380897 4.19797243 -6.38380897 4.19797243 -4.63671875 1.98828125 C-2.55859375 0.12890625 -2.55859375 0.12890625 0 0 Z M-25.55859375 43.12890625 C-24.89859375 48.40890625 -24.23859375 53.68890625 -23.55859375 59.12890625 C-25.86859375 59.12890625 -28.17859375 59.12890625 -30.55859375 59.12890625 C-31.81232678 60.1891037 -31.81232678 60.1891037 -31.96875 62.578125 C-31.36177052 67.83283311 -28.77079457 71.51312926 -25.99609375 75.94140625 C-25.48240234 76.79283203 -24.96871094 77.64425781 -24.43945312 78.52148438 C-15.17886297 93.77819886 -15.17886297 93.77819886 -0.55859375 103.12890625 C6.92242176 104.22936681 12.87926133 103.440665 19.1484375 99.125 C23.45218941 95.37846298 26.41067495 90.91242778 29.44140625 86.12890625 C29.90289062 85.42523926 30.364375 84.72157227 30.83984375 83.99658203 C32.37273731 81.65703302 33.87938606 79.30246631 35.37890625 76.94140625 C35.86415771 76.19342773 36.34940918 75.44544922 36.84936523 74.67480469 C39.91106886 69.7249868 41.13143098 65.95248416 41.44140625 60.12890625 C38.80140625 60.12890625 36.16140625 60.12890625 33.44140625 60.12890625 C34.43140625 55.83890625 35.42140625 51.54890625 36.44140625 47.12890625 C35.40886719 47.04253906 34.37632812 46.95617187 33.3125 46.8671875 C24.21480236 46.02015319 15.4693523 44.57129787 6.56640625 42.50390625 C-5.03615911 39.85750723 -14.28271573 38.61855504 -25.55859375 43.12890625 Z " fill="#000000" transform="translate(94.55859375,62.87109375)"/>
<path d="M0 0 C1.77697266 -0.0309375 1.77697266 -0.0309375 3.58984375 -0.0625 C4.73324219 -0.06765625 5.87664062 -0.0728125 7.0546875 -0.078125 C8.62065674 -0.09214355 8.62065674 -0.09214355 10.21826172 -0.10644531 C14.79215821 0.45443902 17.99410945 2.66121514 20.875 6.1875 C24.40786406 10.99612052 24.2423273 14.57865209 24.1875 20.5 C24.17847656 21.76328125 24.16945313 23.0265625 24.16015625 24.328125 C24.14855469 25.29234375 24.13695313 26.2565625 24.125 27.25 C29.57 28.735 29.57 28.735 35.125 30.25 C36.6409375 28.6103125 36.6409375 28.6103125 38.1875 26.9375 C42.65738635 22.49459486 46.29440385 20.54795749 52.6875 19.875 C61.03678584 20.78583118 65.7759366 26.47555226 71.375 32.1875 C72.1896875 32.99896484 73.004375 33.81042969 73.84375 34.64648438 C82.38849183 43.26903428 82.38849183 43.26903428 82.5 49.625 C82.25497987 57.96929651 75.79508169 62.82764032 70.125 68.25 C70.3415625 68.79269531 70.558125 69.33539063 70.78125 69.89453125 C71.0596875 70.60996094 71.338125 71.32539062 71.625 72.0625 C72.04265625 73.12404297 72.04265625 73.12404297 72.46875 74.20703125 C73.125 76.25 73.125 76.25 73.125 79.25 C74.30255859 79.19779297 74.30255859 79.19779297 75.50390625 79.14453125 C83.6093358 78.93567969 88.52996125 79.29407925 94.9375 84.5625 C99.95999895 90.73299872 99.46052178 97.59491541 99.4375 105.1875 C99.45361328 106.24646484 99.46972656 107.30542969 99.48632812 108.39648438 C99.49106908 115.99622949 98.7244294 121.00071325 93.875 127.0625 C87.09645445 132.45452487 79.40368167 131.47408462 71.125 131.25 C70.135 134.22 69.145 137.19 68.125 140.25 C63.175 140.25 58.225 140.25 53.125 140.25 C54.54294064 136.7051484 55.99494562 133.22694306 57.5625 129.75 C57.97371094 128.8321875 58.38492188 127.914375 58.80859375 126.96875 C62.00243733 120.37256267 62.00243733 120.37256267 64.125 118.25 C65.60007118 118.10547282 67.0813604 118.02305075 68.5625 117.96875 C69.90441406 117.91267578 69.90441406 117.91267578 71.2734375 117.85546875 C73.17447917 117.78515625 75.07552083 117.71484375 76.9765625 117.64453125 C78.31847656 117.58845703 78.31847656 117.58845703 79.6875 117.53125 C80.51378906 117.50095703 81.34007812 117.47066406 82.19140625 117.43945312 C84.13061156 117.45598341 84.13061156 117.45598341 85.125 116.25 C85.21213831 114.54227642 85.23200007 112.83101351 85.22265625 111.12109375 C85.21943359 110.08662109 85.21621094 109.05214844 85.21289062 107.98632812 C85.20451172 106.89771484 85.19613281 105.80910156 85.1875 104.6875 C85.18073242 103.0487793 85.18073242 103.0487793 85.17382812 101.37695312 C85.16199826 98.66791505 85.14551543 95.95898401 85.125 93.25 C84.57038086 93.2406543 84.01576172 93.23130859 83.44433594 93.22167969 C80.92033519 93.16784278 78.39816186 93.08422746 75.875 93 C74.56595703 92.97873047 74.56595703 92.97873047 73.23046875 92.95703125 C66.84466429 92.71329826 66.84466429 92.71329826 63.6796875 90.67578125 C61.65723924 87.52015219 60.54564884 84.2544008 59.5 80.6875 C57.85031198 75.24173501 57.85031198 75.24173501 55.125 70.25 C55.11708327 66.90122523 55.26941742 64.36883876 57.35644531 61.63964844 C58.93612859 60.06400786 60.56171015 58.58359055 62.25 57.125 C66.51646875 53.69669085 66.51646875 53.69669085 68.43359375 48.80859375 C66.4200422 44.87164967 63.35782619 42.32695024 60.0625 39.4375 C59.39927734 38.84001953 58.73605469 38.24253906 58.05273438 37.62695312 C56.41888697 36.15766589 54.776454 34.69942962 53.125 33.25 C47.44564798 35.01151025 44.58766128 38.80841702 40.72265625 43.1328125 C38.125 45.25 38.125 45.25 35.24609375 45.76171875 C31.47325769 45.14314363 28.44703335 43.73995696 25.125 41.9375 C24.23941406 41.4744043 24.23941406 41.4744043 23.3359375 41.00195312 C21.59538994 40.09142439 19.86013361 39.17080386 18.125 38.25 C17.01125 37.69957031 15.8975 37.14914063 14.75 36.58203125 C12.125 35.25 12.125 35.25 11.125 34.25 C10.96785346 32.61743242 10.87414586 30.97864662 10.80859375 29.33984375 C10.76669922 28.35048828 10.72480469 27.36113281 10.68164062 26.34179688 C10.64232422 25.30087891 10.60300781 24.25996094 10.5625 23.1875 C10.51931641 22.14271484 10.47613281 21.09792969 10.43164062 20.02148438 C10.32518895 17.43116028 10.22455692 14.84059825 10.125 12.25 C3.525 12.25 -3.075 12.25 -9.875 12.25 C-9.90078125 13.71953125 -9.9265625 15.1890625 -9.953125 16.703125 C-10.0094062 18.63544636 -10.06675354 20.56773688 -10.125 22.5 C-10.13917969 23.46808594 -10.15335937 24.43617187 -10.16796875 25.43359375 C-10.41292091 32.53720647 -10.41292091 32.53720647 -12.48046875 35.7265625 C-15.50026278 37.64780177 -18.6178405 39.07195608 -21.9375 40.375 C-25.4529425 41.78988398 -28.70059469 43.13372979 -31.875 45.25 C-34.7109375 45.71484375 -34.7109375 45.71484375 -37.875 45.25 C-40.01112504 43.4737974 -41.69309658 41.87206364 -43.5 39.8125 C-46.82223399 36.00803169 -46.82223399 36.00803169 -50.97265625 33.21484375 C-53.7359741 33.26591123 -54.70069711 34.37245103 -56.6875 36.25 C-57.37328125 36.89710937 -58.0590625 37.54421875 -58.765625 38.2109375 C-59.46171875 38.88382813 -60.1578125 39.55671875 -60.875 40.25 C-61.57109375 40.86101563 -62.2671875 41.47203125 -62.984375 42.1015625 C-63.95117188 42.97941406 -63.95117188 42.97941406 -64.9375 43.875 C-65.52660156 44.40351562 -66.11570313 44.93203125 -66.72265625 45.4765625 C-68.08626806 47.22892667 -68.08626806 47.22892667 -67.90234375 49.62109375 C-66.29099983 53.74441868 -63.0660943 56.19448098 -59.82421875 59.05664062 C-57.37085284 61.33846512 -55.94857983 63.02721663 -54.890625 66.23046875 C-54.87229465 69.77280922 -55.64445762 71.91715819 -57.125 75.125 C-58.71560385 78.6621163 -60.23899187 82.14472904 -61.5 85.8125 C-62.76459196 88.9739799 -63.28951882 90.23749517 -65.875 92.25 C-67.9597168 92.68237305 -67.9597168 92.68237305 -70.32421875 92.76171875 C-71.17177734 92.79716797 -72.01933594 92.83261719 -72.89257812 92.86914062 C-73.77365234 92.89169922 -74.65472656 92.91425781 -75.5625 92.9375 C-76.45517578 92.97166016 -77.34785156 93.00582031 -78.26757812 93.04101562 C-80.46992671 93.12345648 -82.67187938 93.19261551 -84.875 93.25 C-84.90387236 97.06248426 -84.92175492 100.8749407 -84.9375 104.6875 C-84.94587891 105.77611328 -84.95425781 106.86472656 -84.96289062 107.98632812 C-84.96611328 109.02080078 -84.96933594 110.05527344 -84.97265625 111.12109375 C-84.97789307 112.07943115 -84.98312988 113.03776855 -84.98852539 114.02514648 C-85.1255313 116.22285339 -85.1255313 116.22285339 -83.875 117.25 C-82.42255932 117.3704463 -80.96489924 117.42948128 -79.5078125 117.4609375 C-78.62222656 117.48929687 -77.73664063 117.51765625 -76.82421875 117.546875 C-74.94941336 117.59873684 -73.07438389 117.6430734 -71.19921875 117.6796875 C-70.31105469 117.710625 -69.42289063 117.7415625 -68.5078125 117.7734375 C-67.69199707 117.79325684 -66.87618164 117.81307617 -66.03564453 117.83349609 C-63.37729335 118.3459421 -62.52383142 119.13796111 -60.875 121.25 C-59.96715084 123.32310678 -59.14132056 125.43301306 -58.375 127.5625 C-56.75814562 132.02439623 -55.0174973 135.9650054 -52.875 140.25 C-57.825 140.25 -62.775 140.25 -67.875 140.25 C-69.36 135.795 -69.36 135.795 -70.875 131.25 C-71.73222656 131.27320313 -72.58945313 131.29640625 -73.47265625 131.3203125 C-87.00980868 131.53397669 -87.00980868 131.53397669 -93.625 127.625 C-99.61221947 121.30515722 -99.34098449 113.39126795 -99.25 105.1875 C-99.26160156 104.13755859 -99.27320312 103.08761719 -99.28515625 102.00585938 C-99.2566344 94.45232343 -98.49487193 89.35247992 -93.5 83.4375 C-88.83917031 79.55347526 -85.05829076 79.00387291 -79.0625 79.125 C-77.32033203 79.15207031 -77.32033203 79.15207031 -75.54296875 79.1796875 C-74.66253906 79.20289062 -73.78210938 79.22609375 -72.875 79.25 C-72.75125 78.363125 -72.6275 77.47625 -72.5 76.5625 C-71.93087264 73.54612498 -71.10885564 71.04673946 -69.875 68.25 C-70.57367188 67.57453125 -71.27234375 66.8990625 -71.9921875 66.203125 C-72.90226562 65.31109375 -73.81234375 64.4190625 -74.75 63.5 C-75.65492187 62.61828125 -76.55984375 61.7365625 -77.4921875 60.828125 C-80.78774616 57.26243859 -82.16477915 54.73258836 -82.25 49.875 C-82.29253906 48.78058594 -82.29253906 48.78058594 -82.3359375 47.6640625 C-80.98387104 40.58290087 -74.31699644 35.3586617 -69.4375 30.5 C-68.68662109 29.73300781 -67.93574219 28.96601563 -67.16210938 28.17578125 C-66.42927734 27.44230469 -65.69644531 26.70882813 -64.94140625 25.953125 C-64.28084229 25.28958008 -63.62027832 24.62603516 -62.93969727 23.94238281 C-58.5576696 20.35053986 -54.4386326 19.7703765 -48.875 20.25 C-42.57604647 22.16218232 -39.31892217 25.44330868 -34.875 30.25 C-31.245 29.26 -27.615 28.27 -23.875 27.25 C-23.90980469 26.32058594 -23.94460937 25.39117188 -23.98046875 24.43359375 C-24.17243012 15.66735804 -24.27185398 10.15638207 -18.375 3.375 C-13.10369792 -1.10560677 -6.57886719 0.02844916 0 0 Z " fill="#000000" transform="translate(98.875,-0.25)"/>
<path d="M0 0 C4.83271375 4.10780669 4.83271375 4.10780669 5.5625 8 C4.84913525 11.80461201 3.96430947 13.49173814 1 16 C-2.66499128 15.87140381 -5.53421195 15.15526268 -9 14 C-8.7525 14.9590625 -8.7525 14.9590625 -8.5 15.9375 C-7.83603561 20.00428188 -7.93850445 23.87979829 -8 28 C-11.96 28 -15.92 28 -20 28 C-20 23.38 -20 18.76 -20 14 C-23.92896395 14 -27.19893228 15.00299863 -31 16 C-33.68609622 12.19469703 -34.59490938 9.66012347 -34 5 C-32.5 2.625 -32.5 2.625 -31 1 C-27.24786309 1.36606214 -24.63010277 2.10333006 -21.5 4.125 C-17.38868029 6.3274927 -16.40233267 6.07624595 -12 5 C-9.85279789 4.20328876 -7.72642789 3.34811875 -5.625 2.4375 C-4.56539062 1.98246094 -3.50578125 1.52742187 -2.4140625 1.05859375 C-1.61742187 0.70925781 -0.82078125 0.35992187 0 0 Z " fill="#010101" transform="translate(114,171)"/>
<path d="M0 0 C3.9375 0.625 3.9375 0.625 6.375 2.25 C8.30981132 5.1909132 8.86559193 7.10150456 8.9375 10.625 C7.33338152 14.15406067 6.19590638 15.45272908 2.9375 17.625 C-0.76735832 18.10824239 -2.58842056 17.88837747 -5.875 16.0625 C-8.78444213 12.82055019 -9.21221147 10.96663268 -9.0625 6.625 C-6.70523219 2.44275066 -4.83548374 0.26260118 0 0 Z " fill="#010101" transform="translate(99.0625,223.375)"/>
</svg>
